<?xml version="1.0" encoding="UTF-8"?>
<svg version="1.1" xmlns="http://www.w3.org/2000/svg" width="1254" height="1254">
<path d="M0 0 C413.82 0 827.64 0 1254 0 C1254 413.82 1254 827.64 1254 1254 C840.18 1254 426.36 1254 0 1254 C0 840.18 0 426.36 0 0 Z " fill="#FDFDFD" transform="translate(0,0)"/>
<path d="M0 0 C1.67003586 -0.00067978 1.67003586 -0.00067978 3.37380981 -0.00137329 C26.42650263 0.0260844 49.08820186 1.2987149 71.4375 7.375 C72.44321045 7.64739502 73.4489209 7.91979004 74.48510742 8.20043945 C76.29320699 8.69358722 78.10025504 9.19060592 79.90625 9.69140625 C82.15878519 10.2997298 84.41533286 10.84628418 86.6875 11.375 C89.84208432 12.21622248 92.6040682 13.30413114 95.58154297 14.60791016 C98.45010446 15.79352186 101.40859906 16.65455187 104.375 17.5625 C112.01957692 20.03121961 118.98689489 23.40291816 126.08105469 27.14160156 C128.733492 28.5299266 131.40105181 29.88650055 134.0703125 31.2421875 C144.90559812 36.77655351 155.39826166 42.48498547 165.4375 49.375 C163.97156342 52.76049089 162.08822634 54.96979568 159.48046875 57.5625 C158.69736328 58.34367187 157.91425781 59.12484375 157.10742188 59.9296875 C156.28822266 60.73664063 155.46902344 61.54359375 154.625 62.375 C153.81740234 63.18195313 153.00980469 63.98890625 152.17773438 64.8203125 C146.10321072 70.8500608 146.10321072 70.8500608 142.7277832 73.51171875 C140.36847515 75.17006076 140.36847515 75.17006076 139.4375 77.375 C134.37050434 76.81862401 130.62677128 74.38959583 126.3125 71.875 C99.76378389 56.90230693 71.53527256 46.49288966 41.33935547 41.83032227 C39.3907774 41.52457617 37.4467205 41.18861983 35.50830078 40.82397461 C25.61441761 39.05468781 15.82947253 39.02061919 5.8125 39.0625 C4.45989075 39.06523422 4.45989075 39.06523422 3.07995605 39.06802368 C-19.7071038 39.14535761 -41.5429568 41.27748036 -63.5625 47.375 C-64.38766113 47.59526855 -65.21282227 47.81553711 -66.06298828 48.04248047 C-91.88188086 54.97686999 -117.96350795 66.50635278 -139.5625 82.375 C-140.4594458 83.0237207 -140.4594458 83.0237207 -141.37451172 83.68554688 C-160.06702051 97.22774704 -177.34153977 112.09824245 -191.5625 130.375 C-192.33851563 131.3340625 -193.11453125 132.293125 -193.9140625 133.28125 C-214.53999504 159.21099376 -230.55567623 190.18496461 -238.5625 222.375 C-239.04919592 224.19408622 -239.53620425 226.01308887 -240.0234375 227.83203125 C-249.51373088 264.15955806 -249.65404366 300.56040764 -243.5625 337.375 C-243.42360352 338.24189453 -243.28470703 339.10878906 -243.14160156 340.00195312 C-235.85745358 383.55856319 -212.48207748 426.75680263 -182.71484375 459.03515625 C-180.59533386 461.33930584 -178.54814658 463.69495434 -176.5 466.0625 C-173.42388969 469.52691615 -170.19738812 472.60320962 -166.65625 475.5859375 C-165.2290919 476.80541215 -163.83378521 478.06292852 -162.46875 479.3515625 C-129.77956836 510.13760685 -86.1382226 528.86709922 -42.5625 537.375 C-41.65483887 537.55611328 -40.74717773 537.73722656 -39.81201172 537.92382812 C-26.34337346 540.51294036 -12.98298389 540.6165987 0.6875 540.625 C2.16530945 540.62601212 2.16530945 540.62601212 3.67297363 540.62704468 C18.14842534 540.61128808 32.19110749 540.13512176 46.4375 537.375 C47.41477051 537.19807617 48.39204102 537.02115234 49.39892578 536.83886719 C89.23931917 529.58376803 125.83367031 512.65806375 157.4375 487.375 C158.46488281 486.55515625 159.49226563 485.7353125 160.55078125 484.890625 C173.74294471 474.14428081 186.1857551 461.9738631 196.4375 448.375 C196.85128906 447.83762207 197.26507812 447.30024414 197.69140625 446.74658203 C223.51696396 413.15641605 240.4011984 374.29674069 248.015625 332.62890625 C248.42307778 330.45205206 248.88110051 328.29067823 249.34375 326.125 C251.66523445 314.31247192 251.72927429 302.49346183 251.75 290.5 C251.75358521 289.66069946 251.75717041 288.82139893 251.76086426 287.95666504 C251.78472312 277.56587668 251.14072816 267.64859619 249.4375 257.375 C249.22497544 255.68229888 249.02219826 253.9883272 248.83203125 252.29296875 C244.77901583 218.37060776 231.8003385 182.29759657 212.29541016 154.14331055 C209.39657579 149.86405054 209.39657579 149.86405054 209.59912109 147.44360352 C210.67768184 144.78237894 212.14996377 143.2905229 214.18359375 141.265625 C214.93833984 140.51152344 215.69308594 139.75742187 216.47070312 138.98046875 C217.26412109 138.20316406 218.05753906 137.42585937 218.875 136.625 C219.66455078 135.83222656 220.45410156 135.03945313 221.26757812 134.22265625 C227.17059085 128.375 227.17059085 128.375 229.4375 128.375 C229.4375 127.715 229.4375 127.055 229.4375 126.375 C231.39677063 124.6606382 233.39630212 122.99094832 235.4375 121.375 C238.81628505 122.77285319 240.29617736 124.19488688 242.21484375 127.28515625 C242.72200928 128.09774902 243.2291748 128.9103418 243.75170898 129.74755859 C244.55523804 131.07907959 244.55523804 131.07907959 245.375 132.4375 C246.22010132 133.82316162 246.22010132 133.82316162 247.08227539 135.23681641 C256.469481 150.85743879 265.46224654 167.1109684 271.4375 184.375 C271.75025879 185.2707373 272.06301758 186.16647461 272.38525391 187.08935547 C279.18704031 206.70314123 284.25661067 225.85941988 287.4375 246.375 C287.59138184 247.32036621 287.74526367 248.26573242 287.90380859 249.23974609 C292.04888486 275.2529004 292.38418246 303.29281577 288.4375 329.375 C288.31922852 330.22852051 288.20095703 331.08204102 288.07910156 331.96142578 C279.85029252 390.49484991 253.1149585 445.45514237 212.98046875 488.609375 C210.96356507 490.80287393 209.03238388 493.02556114 207.125 495.3125 C178.92811561 527.57560176 136.09718577 551.67571072 95.74462891 564.61914062 C93.49401907 565.35648328 91.268826 566.14444845 89.04296875 566.953125 C62.42066997 576.50440872 33.14340411 580.59357895 4.9375 580.625 C3.86301102 580.62700912 3.86301102 580.62700912 2.76681519 580.62905884 C-11.49045551 580.62333532 -25.44523936 579.392781 -39.5625 577.375 C-40.3973291 577.26285156 -41.2321582 577.15070312 -42.09228516 577.03515625 C-97.0424003 569.58429318 -150.9520309 542.88190479 -191.5625 505.375 C-193.26968048 503.85287267 -194.97801675 502.33204066 -196.6875 500.8125 C-203.79202954 494.40841703 -210.4135019 487.70122264 -216.5625 480.375 C-217.02817383 479.82312012 -217.49384766 479.27124023 -217.97363281 478.70263672 C-225.85179477 469.32796801 -233.04929628 459.74448674 -239.5625 449.375 C-239.92762695 448.80023926 -240.29275391 448.22547852 -240.66894531 447.63330078 C-262.0109663 413.85931331 -277.50158702 375.82845306 -283.15673828 336.16699219 C-283.55606888 333.41925169 -284.00742699 330.68390454 -284.46484375 327.9453125 C-288.65546632 301.1910633 -287.90484487 273.0433291 -283.5625 246.375 C-283.42859863 245.48103516 -283.29469727 244.58707031 -283.15673828 243.66601562 C-279.63493164 220.22145551 -273.32174824 196.99983943 -263.5625 175.375 C-263.15128906 174.46057129 -262.74007813 173.54614258 -262.31640625 172.60400391 C-253.2322352 152.6127625 -242.69903473 133.97917936 -229.5625 116.375 C-229.0984375 115.75254395 -228.634375 115.13008789 -228.15625 114.48876953 C-213.52345497 95.02860711 -196.01361421 76.02506345 -176.5625 61.375 C-175.37823773 60.45137737 -174.19469741 59.52682862 -173.01171875 58.6015625 C-160.30087972 48.76070639 -146.78893465 40.23610902 -132.8125 32.3125 C-132.18150391 31.95454346 -131.55050781 31.59658691 -130.90039062 31.2277832 C-126.87339119 28.98930241 -122.80943442 27.13911122 -118.5625 25.375 C-117.20718791 24.75248776 -115.85286284 24.12781725 -114.5 23.5 C-109.53110172 21.27841067 -104.42606076 19.49852513 -99.28515625 17.71875 C-96.44601398 16.69391795 -93.6894815 15.60073643 -90.90625 14.44140625 C-85.06132327 12.08752949 -79.08568462 10.42254326 -73 8.8125 C-71.28200195 8.35580933 -71.28200195 8.35580933 -69.52929688 7.88989258 C-46.51609987 1.88567566 -23.72647385 -0.03763906 0 0 Z " fill="#0A4357" transform="translate(629.5625,311.625)"/>
<path d="M0 0 C1.72974441 0.00015918 3.45949355 0.0058569 5.18920898 0.01586914 C6.09783188 0.01728409 7.00645477 0.01869904 7.94261169 0.02015686 C10.85687494 0.02577346 13.77106254 0.03832874 16.68530273 0.05102539 C18.65600475 0.05603825 20.62670797 0.06060153 22.59741211 0.06469727 C27.43923832 0.07574828 32.28100768 0.09302401 37.12280273 0.11352539 C35.47773161 5.17885217 33.77739513 10.17217345 31.70483398 15.08227539 C31.25946289 16.13914551 30.8140918 17.19601562 30.35522461 18.28491211 C29.88665039 19.38335449 29.41807617 20.48179687 28.93530273 21.61352539 C28.19957031 23.34046631 28.19957031 23.34046631 27.44897461 25.10229492 C12.32382637 60.40913606 -7.10663825 92.93383954 -30.87719727 123.11352539 C-31.52946289 123.94883789 -32.18172852 124.78415039 -32.85375977 125.64477539 C-47.57254264 144.30068126 -63.65868233 162.75658402 -81.72094727 178.23852539 C-84.27712116 180.4612853 -86.76098168 182.75574811 -89.25219727 185.05102539 C-94.29699607 189.64034304 -99.47273795 193.95567478 -104.87719727 198.11352539 C-105.4347168 198.54358887 -105.99223633 198.97365234 -106.56665039 199.41674805 C-131.82429996 218.83272198 -158.4195967 234.82505594 -186.87719727 249.11352539 C-187.69317383 249.52618652 -188.50915039 249.93884766 -189.34985352 250.36401367 C-200.93900355 256.18709509 -212.97080429 260.67049714 -225.14770508 265.10571289 C-227.47438842 265.96479597 -229.78407136 266.85223807 -232.08813477 267.76977539 C-254.52134256 276.67170385 -278.27613932 281.44774787 -301.87719727 286.11352539 C-303.23167969 286.38422852 -303.23167969 286.38422852 -304.61352539 286.66040039 C-308.88543406 287.49817115 -313.1573583 288.20975731 -317.47192383 288.78979492 C-319.18652797 289.02056686 -320.89928388 289.26524993 -322.6105957 289.51928711 C-361.8547018 295.1810869 -403.76203262 294.53635107 -442.87719727 288.11352539 C-443.54547546 288.00461975 -444.21375366 287.89571411 -444.90228271 287.7835083 C-454.62407898 286.18219244 -464.26119089 284.26655799 -473.87719727 282.11352539 C-474.99787598 281.8626416 -476.11855469 281.61175781 -477.27319336 281.35327148 C-512.18178197 273.32919827 -546.01085238 260.38893781 -577.87719727 244.11352539 C-576.64109605 241.45506113 -575.5692026 239.77223401 -573.56469727 237.55102539 C-566.30190035 228.91302432 -564.85833338 218.96459798 -563.87719727 208.11352539 C-560.04013008 209.32200664 -556.50707433 210.69506423 -552.93969727 212.55102539 C-548.97646171 214.57405011 -544.9843282 216.39599791 -540.87719727 218.11352539 C-539.58469825 218.69501215 -538.2931162 219.27853918 -537.00219727 219.86352539 C-535.29506464 220.61625442 -533.58654345 221.36583669 -531.87719727 222.11352539 C-530.76473633 222.60723633 -529.65227539 223.10094727 -528.50610352 223.60961914 C-492.99256624 239.01126993 -452.73059169 249.30986107 -414.01879883 251.96655273 C-411.98833057 252.1058986 -409.95995949 252.27487708 -407.93188477 252.44555664 C-380.92397791 254.52867475 -353.71694214 253.51736622 -326.87719727 250.11352539 C-325.74636719 249.97043945 -324.61553711 249.82735352 -323.45043945 249.67993164 C-314.50299258 248.47648866 -305.69738381 246.76005279 -296.87719727 244.86352539 C-296.1593103 244.71012695 -295.44142334 244.55672852 -294.70178223 244.39868164 C-271.7535452 239.4783885 -248.18605532 233.94365279 -226.99438477 223.61743164 C-224.22884543 222.28318021 -221.43727164 221.05835101 -218.60864258 219.86523438 C-175.57317075 201.60527273 -137.24519443 175.61752279 -102.87719727 144.11352539 C-102.32354492 143.61030762 -101.76989258 143.10708984 -101.19946289 142.58862305 C-92.03546432 134.31367894 -92.03546432 134.31367894 -83.68969727 125.23461914 C-81.79329058 123.01533287 -79.7967558 120.90809036 -77.78417969 118.79443359 C-70.14438508 110.723645 -63.47884443 102.04077512 -56.87719727 93.11352539 C-56.33949707 92.39535645 -55.80179688 91.6771875 -55.24780273 90.93725586 C-35.12607456 64.04175686 -18.20666208 34.39086426 -5.75219727 3.16821289 C-4.24927908 -0.36096106 -4.2754781 0.12518716 0 0 Z " fill="#0A4357" transform="translate(1010.877197265625,753.886474609375)"/>
<path d="M0 0 C3.39988121 1.46601695 5.57460259 3.35255686 8.15234375 5.9921875 C9.31733398 7.17361328 9.31733398 7.17361328 10.50585938 8.37890625 C11.30830078 9.20261719 12.11074219 10.02632813 12.9375 10.875 C14.527573 12.4997235 16.11995413 14.12219191 17.71484375 15.7421875 C18.41730225 16.4626123 19.11976074 17.18303711 19.84350586 17.92529297 C22.11843603 20.11394423 24.50808445 22.06435697 27 24 C26.42798625 27.75193706 24.90567799 29.4673447 22.25108337 32.1164093 C21.44509705 32.92796478 20.63911072 33.73952026 19.80870056 34.57566833 C18.91784256 35.45731155 18.02698456 36.33895477 17.10913086 37.24731445 C16.16567314 38.19156318 15.22286882 39.13646515 14.28067017 40.08197021 C11.7188766 42.6489009 9.14784 45.20638809 6.57493663 47.76217675 C3.87899082 50.44307239 1.19116516 53.13208572 -1.49766541 55.82011414 C-6.01972751 60.33848182 -10.54738857 64.85117473 -15.07885742 69.36010742 C-20.8773774 75.12984664 -26.66669384 80.90872804 -32.45307255 86.69064045 C-37.44290437 91.6764741 -42.43698334 96.65804749 -47.43173289 101.63895392 C-49.02846882 103.2316109 -50.62463303 104.82483913 -52.22072029 106.41814613 C-54.74221591 108.93470356 -57.2663634 111.44857314 -59.79249191 113.96047974 C-61.14991578 115.3113083 -62.50500678 116.66447989 -63.86000061 118.01774597 C-67.47406789 121.60682086 -71.09364679 125.13551783 -74.95806885 128.45509338 C-80.04309396 132.83374611 -84.7344295 137.60244916 -89.4675293 142.35400391 C-90.49485122 143.38160852 -91.52239461 144.40899177 -92.55014038 145.43617249 C-95.31868571 148.20443283 -98.08415266 150.97574955 -100.84904838 153.74765444 C-103.75301025 156.65790793 -106.65984296 159.56529121 -109.56636047 162.47299194 C-115.06578979 167.97552061 -120.56266793 173.48059045 -126.05861551 178.98659647 C-132.29910748 185.23826338 -138.54243464 191.48709558 -144.78600824 197.73568463 C-155.46065069 208.41899857 -166.13320692 219.10439281 -176.80332947 229.79222107 C-177.68212769 230.67246445 -178.5609259 231.55270782 -179.46635437 232.45962524 C-180.22566096 233.22023066 -180.98496756 233.98083607 -181.76728344 234.76449013 C-183.38857545 236.38781051 -185.01084084 238.01015892 -186.63369465 239.63191795 C-188.2262096 241.22562861 -189.81307006 242.82500746 -191.39453125 244.4296875 C-192.19246094 245.23664063 -192.99039063 246.04359375 -193.8125 246.875 C-194.60269531 247.67679688 -195.39289063 248.47859375 -196.20703125 249.3046875 C-198.26086212 251.2867061 -200.31627987 253.15121808 -202.47875977 255.00512695 C-210.66950066 262.15265727 -218.38917305 269.82766211 -226.14479256 277.44091511 C-228.9168495 280.16129841 -231.69949378 282.86862583 -234.50976562 285.54956055 C-237.2494311 288.16372277 -239.95847582 290.80626775 -242.64870834 293.4712429 C-243.67269716 294.47565654 -244.70702279 295.46964826 -245.75177383 296.45244789 C-251.68463343 301.67854503 -251.68463343 301.67854503 -254.1942749 308.77645874 C-253.70133511 311.35837437 -252.99885007 313.57405286 -252 316 C-247.53642482 330.87858393 -249.99393257 345.54080691 -257.21484375 359.11328125 C-265.34381981 372.25838696 -278.48819024 380.71070559 -293.34765625 384.6171875 C-308.48434453 386.80186416 -323.20171518 384.65442756 -336 376 C-347.91765923 366.98829056 -356.375654 354.87129399 -359 340 C-360.57560106 324.18703996 -357.62439318 309.92122464 -347.80859375 297.1484375 C-338.62782689 286.44982315 -328.08160775 279.23993153 -314 277 C-300.07816637 275.93705536 -300.07816637 275.93705536 -293.93759155 277.53755188 C-291.44119573 278.12852974 -289.55561367 278.31605271 -287 278 C-283.34161128 275.73295922 -280.58105538 272.72204597 -277.65234375 269.59375 C-276.79620987 268.72109497 -275.94007599 267.84843994 -275.05799866 266.94934082 C-272.32668777 264.15552622 -269.63188227 261.32940223 -266.9375 258.5 C-264.23217803 255.7071295 -261.51984624 252.92122036 -258.80628967 250.13635254 C-257.1224062 248.40298361 -255.44465549 246.66362825 -253.77415466 244.9173584 C-249.65725161 240.62774278 -245.46490571 236.57875384 -240.94898987 232.7130127 C-237.4954917 229.67765253 -234.29245556 226.39452799 -231.0625 223.125 C-230.33812744 222.39684082 -229.61375488 221.66868164 -228.86743164 220.91845703 C-226.57581697 218.61474354 -224.28749348 216.30780526 -222 214 C-218.98214919 210.95535221 -215.96086584 207.91417033 -212.9375 204.875 C-211.92151733 203.84656982 -211.92151733 203.84656982 -210.88500977 202.79736328 C-207.04895306 198.94193971 -203.09744089 195.30785666 -198.98046875 191.75561523 C-195.60380511 188.7623228 -192.45072484 185.55335217 -189.28125 182.34375 C-188.57907349 181.63778687 -187.87689697 180.93182373 -187.15344238 180.20446777 C-184.93315397 177.97208642 -182.71616045 175.73647889 -180.5 173.5 C-177.57590521 170.54909622 -174.64836943 167.60166797 -171.71875 164.65625 C-170.735578 163.66063049 -170.735578 163.66063049 -169.73254395 162.64489746 C-165.92430748 158.81682769 -161.99463259 155.21041373 -157.90759277 151.68273926 C-155.01167928 149.12817552 -152.30177372 146.40714261 -149.59375 143.65625 C-149.02474976 143.08346313 -148.45574951 142.51067627 -147.86950684 141.92053223 C-146.07717018 140.11614749 -144.28815684 138.3085264 -142.5 136.5 C-129.27658021 123.12594727 -129.27658021 123.12594727 -123.08789062 117.86523438 C-118.00219973 113.32189031 -113.29119743 108.35057492 -108.5 103.5 C-96.11043065 90.95688626 -96.11043065 90.95688626 -89.81054688 85.58789062 C-86.54490661 82.72385013 -83.53957484 79.59986656 -80.5 76.5 C-76.17908303 72.13252485 -71.85299477 67.8936608 -67.15234375 63.93359375 C-63.32041767 60.49111932 -59.75498084 56.77333598 -56.13256836 53.11303711 C-52.60521622 49.56297365 -49.01118184 46.1991019 -45.1875 42.96875 C-41.34703363 39.51233027 -37.76845378 35.78697405 -34.13500977 32.11547852 C-30.58542182 28.54301767 -26.96842121 25.15395599 -23.12109375 21.90234375 C-19.53262357 18.68395521 -16.193568 15.2130904 -12.80566406 11.78613281 C-8.70328006 7.65480783 -4.48051334 3.72248087 0 0 Z " fill="#094256" transform="translate(934,270)"/>
<path d="M0 0 C0.66 0 1.32 0 2 0 C2.02505615 1.1645874 2.0501123 2.3291748 2.07592773 3.52905273 C2.17069979 7.88461731 2.27074484 12.24004807 2.37231445 16.59545898 C2.41540117 18.47400768 2.45709248 20.35258896 2.49731445 22.23120117 C2.55565933 24.94459822 2.61916223 27.6578352 2.68359375 30.37109375 C2.70866249 31.61384315 2.70866249 31.61384315 2.73423767 32.88169861 C2.85406799 37.6889788 3.23316824 42.34335889 3.97242737 47.09777832 C4 49 4 49 2.15625 51.78515625 C1.2796875 52.53667969 0.403125 53.28820312 -0.5 54.0625 C-1.428125 54.90039062 -2.35625 55.73828125 -3.3125 56.6015625 C-4.199375 57.39304687 -5.08625 58.18453125 -6 59 C-7.19358103 60.28807286 -8.36347995 61.59881052 -9.5 62.9375 C-12.12917817 66.0191414 -14.85566985 68.98117328 -17.625 71.9375 C-23.64349008 78.54782345 -29.01112194 85.61074733 -34.34423828 92.77929688 C-35.92448692 94.89872206 -37.52199716 97.00415853 -39.12109375 99.109375 C-52.78821839 117.33506276 -65.14599695 137.44516552 -75 158 C-75.44085938 158.9187793 -75.88171875 159.83755859 -76.3359375 160.78417969 C-89.18532873 187.91549563 -99.75142495 216.78163889 -106.4375 246.0625 C-106.58552063 246.70865265 -106.73354126 247.3548053 -106.88604736 248.02053833 C-110.69897176 264.84305874 -112.87898734 281.89610901 -115 299 C-115.18030762 300.20954346 -115.36061523 301.41908691 -115.54638672 302.6652832 C-116.25706259 308.39637713 -116.18241314 314.15504419 -116.203125 319.921875 C-116.21167511 321.80292938 -116.21167511 321.80292938 -116.22039795 323.72198486 C-116.22982727 326.38142496 -116.23673214 329.04075298 -116.24023438 331.70019531 C-116.24667324 335.66748727 -116.28078643 339.63439256 -116.3125 343.6015625 C-116.41760944 368.17645572 -114.09100524 391.96816286 -109 416 C-108.65250929 417.69768443 -108.30615814 419.3956025 -107.9609375 421.09375 C-104.76804943 437.37180646 -104.76804943 437.37180646 -99.70996094 453.12695312 C-98.20914508 457.08646457 -97.17897892 461.20964104 -96.0703125 465.29296875 C-94.24078171 471.75650846 -91.63360449 477.82886369 -89 484 C-88.21030277 485.91663745 -87.42378544 487.83458852 -86.640625 489.75390625 C-78.62014302 509.29208639 -69.93505171 527.9154098 -59 546 C-58.58105469 546.69722168 -58.16210938 547.39444336 -57.73046875 548.11279297 C-49.56155876 561.65308544 -40.67662099 574.80152504 -30.62109375 587.01953125 C-30.08613281 587.67308594 -29.55117188 588.32664062 -29 589 C-28.41347656 589.68449219 -27.82695312 590.36898437 -27.22265625 591.07421875 C-26.61744141 592.02748047 -26.61744141 592.02748047 -26 593 C-27.19456744 596.58370231 -27.97463969 596.82398178 -31.125 598.6875 C-39.99212871 604.43002145 -44.01811719 611.39575833 -48 621 C-48.65405042 622.33956719 -49.31605902 623.67544462 -50 625 C-59.0759552 614.82838894 -67.23135503 604.19849462 -75 593 C-75.51594727 592.2570166 -76.03189453 591.5140332 -76.56347656 590.74853516 C-89.25940665 572.34951266 -99.91369658 552.92964948 -110 533 C-110.40460449 532.2069043 -110.80920898 531.41380859 -111.22607422 530.59667969 C-118.6794179 515.88069621 -124.35293597 500.47741649 -130 485 C-130.43586426 483.81075928 -130.87172852 482.62151855 -131.32080078 481.39624023 C-142.67526633 450.07630486 -149.25071994 417.04450219 -153 384 C-153.11714355 383.02417969 -153.23428711 382.04835938 -153.35498047 381.04296875 C-155.08651608 366.1615394 -155.20263247 351.27571875 -155.25 336.3125 C-155.25535767 335.37180664 -155.26071533 334.43111328 -155.26623535 333.46191406 C-155.32289511 320.34432215 -154.61759812 307.44323594 -153.24856567 294.3976593 C-153.00432058 292.04167619 -152.77902551 289.68464885 -152.56030273 287.32617188 C-149.91845445 259.32638622 -143.48247667 231.76571947 -135 205 C-134.56929199 203.61820557 -134.56929199 203.61820557 -134.12988281 202.20849609 C-117.3009237 148.47408448 -89.67644543 96.2491379 -52.48803711 53.7590332 C-51.37099631 52.43856086 -50.2857321 51.0911007 -49.21704102 49.73120117 C-42.88601866 41.72530517 -35.85834259 34.55285374 -28.62573242 27.36499023 C-26.56258839 25.31258793 -24.51038556 23.24967904 -22.45898438 21.18554688 C-16.14811985 14.86973452 -9.89638269 8.76701011 -2.73803711 3.40698242 C-0.87701081 2.09885742 -0.87701081 2.09885742 0 0 Z " fill="#0A4356" transform="translate(345,264)"/>
<path d="M0 0 C0.67980927 -0.00456207 1.35961853 -0.00912415 2.06002808 -0.01382446 C16.90391527 -0.04928463 33.39396973 0.90333807 46.5625 8.375 C41.66745221 14.31720572 36.32649358 19.76466197 30.87524414 25.19262695 C29.36421353 26.69824785 27.85866539 28.20920561 26.35351562 29.72070312 C25.38834171 30.68521704 24.42285807 31.64942113 23.45703125 32.61328125 C22.58925049 33.47993408 21.72146973 34.34658691 20.82739258 35.23950195 C17.05568552 38.79572936 14.94335505 39.62248639 9.85546875 39.68359375 C8.71779053 39.70655518 7.5801123 39.7295166 6.40795898 39.75317383 C5.20083252 39.77275146 3.99370605 39.7923291 2.75 39.8125 C-10.9274759 40.18196714 -22.88511185 41.59923336 -35.4375 47.375 C-36.23414063 47.72175781 -37.03078125 48.06851563 -37.8515625 48.42578125 C-54.97706418 56.33613203 -66.96035732 69.50223955 -76.4375 85.375 C-76.96472656 86.21417969 -77.49195313 87.05335938 -78.03515625 87.91796875 C-88.0538635 105.47163689 -90.76688759 128.30014354 -85.8125 147.875 C-85.07228 150.39071272 -84.28089131 152.89197217 -83.4375 155.375 C-83.22319336 156.01373047 -83.00888672 156.65246094 -82.78808594 157.31054688 C-78.09914053 170.97469347 -70.5509927 182.08683557 -60.4375 192.375 C-59.76332031 193.06207031 -59.08914063 193.74914062 -58.39453125 194.45703125 C-39.56921124 212.36404297 -16.36830621 217.20831719 8.7890625 216.77734375 C28.37661752 216.24608115 47.14261978 207.43999215 61.5625 194.375 C62.39265625 193.63765625 63.2228125 192.9003125 64.078125 192.140625 C70.98425604 185.65818298 75.81880984 178.48821612 80.5625 170.375 C81.32046875 169.11042969 81.32046875 169.11042969 82.09375 167.8203125 C88.93427739 155.43228424 90.74046468 140.54656072 90.75 126.625 C90.76224609 125.69945312 90.77449219 124.77390625 90.78710938 123.8203125 C90.79761087 118.79359734 90.38712617 114.57540538 89.05859375 109.71875 C88.40226953 106.41565347 88.21443013 105.00253201 89.86303711 102.03027344 C91.92281222 99.69415229 94.08591038 97.66636363 96.4375 95.625 C97.1903125 94.92246094 97.943125 94.21992187 98.71875 93.49609375 C100.96656405 91.41435531 103.2532858 89.38825635 105.5625 87.375 C106.31112305 86.71943115 107.05974609 86.0638623 107.83105469 85.38842773 C109.18119798 84.20743644 110.5335843 83.0289997 111.88916016 81.85424805 C113.86499778 80.10758914 115.73633907 78.27725096 117.5625 76.375 C118.5525 76.705 119.5425 77.035 120.5625 77.375 C121.71462493 79.82364953 122.63824787 82.13538792 123.5 84.6875 C123.75797363 85.44877197 124.01594727 86.21004395 124.28173828 86.99438477 C130.80316727 106.97463096 137.07718043 138.58657849 127.5546875 158.48046875 C127.22726562 159.10566406 126.89984375 159.73085938 126.5625 160.375 C126.20239122 162.01518296 125.87269798 163.66214983 125.5625 165.3125 C118.53341655 194.39221072 96.64861021 221.18264696 71.69921875 236.92578125 C51.02289489 249.44497951 27.89820418 256.79886182 3.6875 256.6875 C2.41898193 256.68258545 1.15046387 256.6776709 -0.15649414 256.67260742 C-36.60126878 256.22437462 -66.9392912 242.28009136 -92.65820312 216.52709961 C-104.23773635 204.54809324 -113.12246464 189.72635241 -119.4375 174.375 C-119.870625 173.32957031 -120.30375 172.28414062 -120.75 171.20703125 C-126.2760347 156.91499507 -127.68905373 143.18206139 -127.75 127.9375 C-127.75555908 126.76493652 -127.76111816 125.59237305 -127.7668457 124.38427734 C-127.67440131 113.24196259 -125.60380401 103.01853837 -122.4375 92.375 C-122.17324219 91.45203125 -121.90898437 90.5290625 -121.63671875 89.578125 C-111.73019329 57.28372481 -87.98556363 30.18134302 -58.3984375 14.40625 C-39.78061126 4.7598944 -20.95628821 0.13521813 0 0 Z " fill="#0A4357" transform="translate(628.4375,472.625)"/>
<path d="M0 0 C1.41128174 0.28762207 1.41128174 0.28762207 2.85107422 0.58105469 C69.98902325 14.48982573 129.26344642 42.20763725 184 83 C183.18920004 87.03311636 181.88516817 88.21493726 178.5625 90.6875 C174.86652735 93.52406674 171.32384258 96.42913295 167.875 99.5625 C167.05515625 100.30371094 166.2353125 101.04492188 165.390625 101.80859375 C163.82463244 103.24408693 162.27189646 104.69420907 160.734375 106.16015625 C160.03828125 106.80855469 159.3421875 107.45695312 158.625 108.125 C158.01914062 108.70507812 157.41328125 109.28515625 156.7890625 109.8828125 C155 111 155 111 153.11206055 110.71801758 C150.86790318 109.95509227 149.33035062 109.02149264 147.41796875 107.62890625 C146.74185547 107.14244629 146.06574219 106.65598633 145.36914062 106.15478516 C144.64919922 105.62933105 143.92925781 105.10387695 143.1875 104.5625 C141.64018639 103.45582298 140.09199492 102.35037241 138.54296875 101.24609375 C137.38547119 100.41827393 137.38547119 100.41827393 136.20458984 99.57373047 C108.13794584 79.53856023 77.27707629 64.86256183 45 53 C43.45037771 52.41834992 41.90088286 51.83636009 40.3515625 51.25390625 C-3.60478409 34.96293208 -53.24565985 28.12480996 -100 30 C-101.95607178 30.06815918 -101.95607178 30.06815918 -103.95166016 30.13769531 C-136.66881943 31.33062161 -168.58736201 36.84010536 -200 46 C-200.88171875 46.25604004 -201.7634375 46.51208008 -202.671875 46.77587891 C-205.40814311 47.57347401 -208.14203364 48.37866891 -210.875 49.1875 C-211.72562012 49.43741699 -212.57624023 49.68733398 -213.45263672 49.94482422 C-214.24943848 50.18346191 -215.04624023 50.42209961 -215.8671875 50.66796875 C-216.56956543 50.87703857 -217.27194336 51.0861084 -217.99560547 51.30151367 C-220.05434008 51.96419497 -220.05434008 51.96419497 -222.07080078 53.08325195 C-224 54 -224 54 -227 54 C-227.14695312 53.31035156 -227.29390625 52.62070313 -227.4453125 51.91015625 C-230.7139148 38.21583973 -238.33902572 30.39290526 -250 23 C-248.55726259 20.11452518 -246.83223703 20.04763415 -243.8125 19.01171875 C-242.73057373 18.63772949 -241.64864746 18.26374023 -240.53393555 17.87841797 C-239.36773682 17.48541504 -238.20153809 17.09241211 -237 16.6875 C-235.80608643 16.28160645 -234.61217285 15.87571289 -233.38208008 15.45751953 C-219.64590859 10.82155005 -205.88992901 6.89890754 -191.8125 3.4375 C-190.67965576 3.15632324 -189.54681152 2.87514648 -188.37963867 2.58544922 C-126.24208875 -12.37979748 -62.48591061 -12.86327534 0 0 Z " fill="#0A4357" transform="translate(722,166)"/>
<path d="M0 0 C0.77456039 -0.00817749 1.54912079 -0.01635498 2.34715271 -0.02478027 C4.90704593 -0.04956216 7.46688383 -0.0661346 10.02685547 -0.08056641 C11.3430871 -0.08855192 11.3430871 -0.08855192 12.68590927 -0.09669876 C17.33340327 -0.1234031 21.9808707 -0.14278393 26.62841797 -0.15722656 C30.46166962 -0.17054521 34.29438636 -0.19836317 38.12744141 -0.23925781 C42.76813195 -0.28876064 47.40833881 -0.31336931 52.04928207 -0.32045364 C53.81061969 -0.32713713 55.57194775 -0.34228293 57.3331337 -0.36634445 C68.09133233 -0.50490228 77.02156924 -0.49415773 85.42312622 7.15371704 C91.6080089 13.35782299 92.50964643 20.39520872 92.55957031 28.90307617 C92.56628754 29.62784653 92.57300476 30.35261688 92.57992554 31.09934998 C92.5987599 33.4704392 92.60282225 35.8412432 92.60498047 38.21240234 C92.61141846 39.87855643 92.61814755 41.54470941 92.62515259 43.21086121 C92.63708894 46.69488137 92.64083717 50.17880265 92.63964844 53.6628418 C92.63944545 58.10096394 92.66674333 62.53844435 92.70119286 66.97641468 C92.72356099 70.41593774 92.72748296 73.85530877 92.72642899 77.29489708 C92.72877021 78.92977801 92.73750921 80.5646641 92.75309372 82.19947243 C92.9318098 102.88188001 92.9318098 102.88188001 86.34310913 110.3865509 C80.02771242 116.43331926 73.62600562 118.64962255 64.98217773 118.59692383 C64.18445953 118.60378708 63.38674133 118.61065033 62.56484985 118.61772156 C59.94653158 118.63591646 57.32881671 118.63216264 54.71044922 118.62646484 C52.87873644 118.63103015 51.04702537 118.63633676 49.21531677 118.64234924 C45.38313828 118.65126598 41.55116835 118.6488736 37.71899414 118.63891602 C32.82204989 118.627428 27.92582693 118.64764251 23.02897739 118.67683315 C19.24813813 118.69522968 15.46747063 118.69489583 11.68659782 118.68919563 C9.88178432 118.68904284 8.07695886 118.69505214 6.27218819 118.70748711 C3.7427736 118.72246111 1.21467769 118.71167411 -1.31469727 118.69458008 C-2.05104904 118.70424805 -2.78740082 118.71391602 -3.54606628 118.72387695 C-10.12858722 118.63130225 -15.21146664 116.35643348 -20.19189453 112.07958984 C-21.13935547 110.99097656 -21.13935547 110.99097656 -22.10595703 109.88037109 C-22.75306641 109.16236328 -23.40017578 108.44435547 -24.06689453 107.70458984 C-27.57681208 102.40675655 -28.02655241 96.65961326 -27.98974609 90.45678711 C-27.99325073 89.71759033 -27.99675537 88.97839355 -28.00036621 88.21679688 C-28.00910901 85.79335913 -28.00336033 83.37021763 -27.99658203 80.94677734 C-27.99793097 79.24958745 -27.99987341 77.55239793 -28.00238037 75.85520935 C-28.00532167 72.30553493 -28.0010666 68.75596147 -27.99169922 65.20629883 C-27.98031401 60.6727496 -27.98686456 56.13943746 -27.99884415 51.60589695 C-28.0060971 48.10302468 -28.00375894 44.60020792 -27.99858856 41.09733391 C-27.9972611 39.42650257 -27.99886787 37.75566608 -28.00354767 36.08484077 C-28.00866867 33.74254277 -28.00082487 31.40061992 -27.98974609 29.05834961 C-27.99379456 28.37810226 -27.99784302 27.69785492 -28.00201416 26.99699402 C-27.93132159 18.86469797 -26.27551292 12.90040535 -20.66845703 6.95458984 C-14.36746349 1.22525902 -8.28227585 0.04850981 0 0 Z " fill="#0B4457" transform="translate(1003.73095703125,618.80712890625)"/>
<path d="M0 0 C0.75519928 -0.00671722 1.51039856 -0.01343445 2.28848267 -0.02035522 C4.77808267 -0.03930664 7.26741248 -0.04325848 9.75708008 -0.04541016 C11.49717823 -0.05184197 13.23727531 -0.05857062 14.97737122 -0.06558228 C18.62475081 -0.07754927 22.27203576 -0.08126389 25.91943359 -0.08007812 C30.57184064 -0.07987541 35.22363362 -0.10713116 39.8758955 -0.14162254 C43.47150912 -0.16396911 47.06697704 -0.16791324 50.66265297 -0.16685867 C52.37650981 -0.16920475 54.09037128 -0.17797179 55.80415916 -0.19352341 C65.94515195 -0.27690292 75.35474481 -0.34127504 83.74145508 6.14990234 C84.24805664 6.77380859 84.7546582 7.39771484 85.27661133 8.04052734 C85.80125977 8.65412109 86.3259082 9.26771484 86.86645508 9.89990234 C90.5174091 15.82664998 91.7149089 21.2055535 91.74316406 28.10839844 C91.75002731 28.84452866 91.75689056 29.58065887 91.76396179 30.33909607 C91.78210817 32.7475877 91.7784095 35.15542021 91.77270508 37.56396484 C91.77727319 39.25493579 91.78258063 40.94590489 91.78858948 42.63687134 C91.79749707 46.17221644 91.79512495 49.70733538 91.78515625 53.24267578 C91.77367787 57.75043006 91.79387239 62.25739962 91.82307339 66.76505089 C91.84151141 70.25516639 91.84112774 73.74509653 91.83543587 77.23524857 C91.83528354 78.8960645 91.84125421 80.55689371 91.85372734 82.21766281 C91.91805068 92.18619125 91.90498815 101.50080725 85.44458008 109.69287109 C84.81165039 110.19947266 84.1787207 110.70607422 83.52661133 111.22802734 C82.90141602 111.75267578 82.2762207 112.27732422 81.63208008 112.81787109 C75.98180817 116.44675101 71.20624699 117.73748977 64.52709961 117.67871094 C63.77975555 117.6839679 63.0324115 117.68922485 62.26242065 117.69464111 C59.81120406 117.70775949 57.36064614 117.69913062 54.90942383 117.68896484 C53.19220862 117.69098836 51.47499426 117.69390211 49.75778198 117.69766235 C46.16517933 117.70207502 42.57280108 117.69569045 38.98022461 117.68164062 C34.39510727 117.66457519 29.81051786 117.67437978 25.22542 117.69235802 C21.68045136 117.70324664 18.13560593 117.69972589 14.59063339 117.69197464 C12.90109061 117.6899853 11.21153633 117.69238701 9.52200699 117.6994133 C-9.20853203 117.76020885 -9.20853203 117.76020885 -17.41088867 112.54052734 C-24.07811861 105.8732974 -25.79977809 100.81085235 -25.85375977 91.43603516 C-25.86193726 90.64850861 -25.87011475 89.86098206 -25.87854004 89.04959106 C-25.90331831 86.44761909 -25.91989086 83.84570141 -25.93432617 81.24365234 C-25.93964985 80.35263573 -25.94497353 79.46161911 -25.95045853 78.54360199 C-25.97715759 73.82709108 -25.9965426 69.11060634 -26.01098633 64.39404297 C-26.0243218 60.49862162 -26.05217168 56.60372456 -26.09301758 52.70849609 C-26.14242168 47.99649355 -26.16711667 43.28496623 -26.17421341 38.57271576 C-26.18091109 36.78181518 -26.19609444 34.99092458 -26.22010422 33.20017242 C-26.3566196 22.40205757 -26.2337399 15.34889213 -18.59838867 7.04833984 C-17.95901367 6.50951172 -17.31963867 5.97068359 -16.66088867 5.41552734 C-16.02151367 4.86123047 -15.38213867 4.30693359 -14.72338867 3.73583984 C-10.01329696 0.4352074 -5.6257313 -0.00723241 0 0 Z " fill="#0B4457" transform="translate(338.660888671875,871.70947265625)"/>
<path d="M0 0 C0.79728012 -0.00832352 1.59456024 -0.01664703 2.41600037 -0.02522278 C5.05049536 -0.04930724 7.68474254 -0.05809389 10.31933594 -0.06469727 C12.15533521 -0.07366631 13.99133375 -0.08278821 15.82733154 -0.09205627 C19.67738621 -0.10854568 23.52735395 -0.11624603 27.37744141 -0.11914062 C32.29809285 -0.12451772 37.21792075 -0.16216994 42.13834 -0.20788479 C45.93203674 -0.23771029 49.72553674 -0.24486541 53.51934052 -0.24586678 C55.33255527 -0.25005986 57.1457711 -0.26245741 58.95886993 -0.28338432 C69.63952362 -0.39682564 76.8299008 -0.36472008 85.07714844 7.15014648 C85.52316406 7.69670898 85.96917969 8.24327148 86.42871094 8.80639648 C87.1209375 9.62624023 87.1209375 9.62624023 87.82714844 10.46264648 C90.97295009 15.19136744 91.35116604 19.62689889 91.34423828 25.18261719 C91.35095551 25.96053619 91.35767273 26.7384552 91.36459351 27.53994751 C91.38354469 30.10408978 91.38749637 32.66796984 91.38964844 35.23217773 C91.39607887 37.02190761 91.40280742 38.81163644 91.40982056 40.60136414 C91.42178648 44.35129227 91.42550214 48.10112834 91.42431641 51.85107422 C91.42411337 56.6426746 91.45140236 61.43368085 91.48586082 66.22514057 C91.50816294 69.92189718 91.51215292 73.61851162 91.51109695 77.3153286 C91.51344843 79.0810774 91.5222463 80.84683039 91.53776169 82.61251259 C91.55748728 85.08942162 91.55155849 87.56506013 91.53955078 90.04199219 C91.55078979 90.76278458 91.56202881 91.48357697 91.5736084 92.22621155 C91.49321585 98.79369375 89.18688725 103.90657313 84.83496094 108.80249023 C84.08214844 109.4431543 83.32933594 110.08381836 82.55371094 110.74389648 C81.80089844 111.40260742 81.04808594 112.06131836 80.27246094 112.73999023 C75.99610436 115.75903775 71.55549343 115.45489522 66.47460938 115.45166016 C65.71634354 115.45501877 64.9580777 115.45837738 64.17683411 115.46183777 C61.67223466 115.47132914 59.16770224 115.47329017 56.66308594 115.47436523 C54.91676811 115.4775798 53.17045056 115.48094402 51.4241333 115.48445129 C47.76240414 115.49043854 44.10069856 115.49229168 40.43896484 115.49169922 C35.76073913 115.49159779 31.08266582 115.50523237 26.40447617 115.52247143 C22.79609491 115.53362549 19.18775006 115.53561736 15.57935333 115.53508949 C13.85548631 115.53626515 12.13161821 115.54066356 10.40776825 115.54842186 C7.98853601 115.55828778 5.5696288 115.55531758 3.15039062 115.54931641 C2.44672867 115.55493591 1.74306671 115.56055542 1.01808167 115.56634521 C-4.90815559 115.52924081 -10.49839962 114.78651568 -15.63378906 111.68139648 C-21.80539009 105.34299543 -24.088968 99.32449545 -24.13916016 90.56542969 C-24.14733765 89.77804916 -24.15551514 88.99066864 -24.16394043 88.1794281 C-24.18876384 85.57201898 -24.20530449 82.96466429 -24.21972656 80.35717773 C-24.22505024 79.46524405 -24.23037392 78.57331036 -24.23585892 77.65434837 C-24.26257995 72.93135818 -24.28195635 68.2083943 -24.29638672 63.48535156 C-24.30971471 59.58309429 -24.33754753 55.68136132 -24.37841797 51.77929688 C-24.4278247 47.06196334 -24.45251782 42.34510463 -24.4596138 37.62752342 C-24.46631255 35.83383184 -24.48149871 34.04015027 -24.50550461 32.24660683 C-24.63945713 21.63120737 -24.63401838 14.43164344 -17.06738281 6.28295898 C-16.51179688 5.83694336 -15.95621094 5.39092773 -15.38378906 4.93139648 C-14.825625 4.46991211 -14.26746094 4.00842773 -13.69238281 3.53295898 C-9.18386232 0.36589985 -5.44538284 0.00483126 0 0 Z " fill="#094357" transform="translate(387.9462890625,203.693603515625)"/>
<path d="M0 0 C3.21868286 1.37012083 4.86556975 2.7633115 6.8828125 5.60546875 C7.40472168 6.3332251 7.92663086 7.06098145 8.46435547 7.81079102 C9.28637451 8.98726196 9.28637451 8.98726196 10.125 10.1875 C10.9914917 11.41134399 10.9914917 11.41134399 11.87548828 12.65991211 C13.5947925 15.09904121 15.29951162 17.54772755 17 20 C17.44150391 20.63131836 17.88300781 21.26263672 18.33789062 21.91308594 C49.7776215 67.04103567 73.47996935 118.39861878 86 172 C86.1959375 172.81758789 86.391875 173.63517578 86.59375 174.47753906 C90.24792563 189.81936706 92.61799795 205.21431567 94.59765625 220.85449219 C94.93236207 223.4712093 95.28564843 226.08350968 95.65625 228.6953125 C96.62489472 235.74647624 97.24594725 242.77134661 97.625 249.875 C97.66520264 250.61693604 97.70540527 251.35887207 97.74682617 252.12329102 C98.13901442 260.75966028 98 269.33209857 98 278 C85.46 278 72.92 278 60 278 C59.773125 272.616875 59.54625 267.23375 59.3125 261.6875 C55.08184581 177.34094362 26.6815558 94.501912 -26 28 C-24.39626852 23.99482604 -21.57886014 21.3228902 -18.5546875 18.359375 C-17.75987473 17.56880707 -17.75987473 17.56880707 -16.94900513 16.76226807 C-15.26232175 15.08674325 -13.56880436 13.41832278 -11.875 11.75 C-10.72740612 10.61244149 -9.58026539 9.47442564 -8.43359375 8.3359375 C-5.62761863 5.55196535 -2.81549536 2.7743424 0 0 Z " fill="#0A4357" transform="translate(976,324)"/>
<path d="M0 0 C1.46657043 -0.00472824 1.46657043 -0.00472824 2.96276855 -0.009552 C4.0262854 -0.00752777 5.08980225 -0.00550354 6.18554688 -0.00341797 C7.81127625 -0.00485306 7.81127625 -0.00485306 9.46984863 -0.00631714 C11.76652077 -0.00699912 14.06319482 -0.00514358 16.35986328 -0.00097656 C19.88904115 0.00437141 23.41809174 -0.00092097 26.94726562 -0.00732422 C29.17252632 -0.00666344 31.39778694 -0.00538228 33.62304688 -0.00341797 C34.68656372 -0.0054422 35.75008057 -0.00746643 36.8458252 -0.009552 C37.82353882 -0.00639984 38.80125244 -0.00324768 39.80859375 0 C40.67383667 0.00079559 41.53907959 0.00159119 42.43054199 0.00241089 C44.40429688 0.12939453 44.40429688 0.12939453 45.40429688 1.12939453 C45.49749137 2.66422423 45.52175488 4.20331536 45.51782227 5.7409668 C45.51774673 6.72190811 45.5176712 7.70284943 45.51759338 8.71351624 C45.5124321 9.78017014 45.50727081 10.84682404 45.50195312 11.94580078 C45.50053818 13.03199203 45.49912323 14.11818329 45.49766541 15.23728943 C45.49204736 18.72218528 45.4794918 22.20701795 45.46679688 25.69189453 C45.4617842 28.0480134 45.45722089 30.40413327 45.453125 32.76025391 C45.44207207 38.54998917 45.42531638 44.33968734 45.40429688 50.12939453 C38.30184688 50.15466241 31.1994084 50.17222654 24.09692383 50.18432617 C21.67862515 50.18936802 19.26032954 50.19620131 16.84204102 50.20483398 C13.37450404 50.2169061 9.90700721 50.22262416 6.43945312 50.22705078 C5.35092545 50.23221207 4.26239777 50.23737335 3.1408844 50.24269104 C1.6394413 50.24280434 1.6394413 50.24280434 0.10766602 50.24291992 C-1.22137001 50.24625084 -1.22137001 50.24625084 -2.57725525 50.24964905 C-4.59570312 50.12939453 -4.59570312 50.12939453 -5.59570312 49.12939453 C-5.69401459 47.63069405 -5.72368769 46.12740915 -5.72509766 44.62548828 C-5.72824982 43.66779541 -5.73140198 42.71010254 -5.73464966 41.72338867 C-5.73262543 40.68174561 -5.7306012 39.64010254 -5.72851562 38.56689453 C-5.72947235 37.505271 -5.73042908 36.44364746 -5.73141479 35.34985352 C-5.73209677 33.10025982 -5.73024131 30.85066416 -5.72607422 28.60107422 C-5.72072622 25.14432382 -5.72601867 21.68770336 -5.73242188 18.23095703 C-5.7317611 16.05126924 -5.73047994 13.87158154 -5.72851562 11.69189453 C-5.73053986 10.65025146 -5.73256409 9.6086084 -5.73464966 8.53540039 C-5.7314975 7.57770752 -5.72834534 6.62001465 -5.72509766 5.63330078 C-5.72430206 4.78582275 -5.72350647 3.93834473 -5.72268677 3.06518555 C-5.4742246 -0.72247423 -3.26998188 0.00300676 0 0 Z " fill="#F8FAFA" transform="translate(1015.595703125,652.87060546875)"/>
<path d="M0 0 C1.46657043 -0.00472824 1.46657043 -0.00472824 2.96276855 -0.009552 C4.0262854 -0.00752777 5.08980225 -0.00550354 6.18554688 -0.00341797 C7.81127625 -0.00485306 7.81127625 -0.00485306 9.46984863 -0.00631714 C11.76652077 -0.00699912 14.06319482 -0.00514358 16.35986328 -0.00097656 C19.88904115 0.00437141 23.41809174 -0.00092097 26.94726562 -0.00732422 C29.17252632 -0.00666344 31.39778694 -0.00538228 33.62304688 -0.00341797 C34.68656372 -0.0054422 35.75008057 -0.00746643 36.8458252 -0.009552 C37.82353882 -0.00639984 38.80125244 -0.00324768 39.80859375 0 C40.67383667 0.00079559 41.53907959 0.00159119 42.43054199 0.00241089 C44.40429688 0.12939453 44.40429688 0.12939453 45.40429688 1.12939453 C45.50252432 2.59744745 45.53228058 4.07016913 45.53369141 5.54150391 C45.53684357 6.47917603 45.53999573 7.41684814 45.54324341 8.38293457 C45.54121918 9.40270386 45.53919495 10.42247314 45.53710938 11.47314453 C45.5380661 12.51257202 45.53902283 13.55199951 45.54000854 14.6229248 C45.5406905 16.82544007 45.53883514 19.02795732 45.53466797 21.23046875 C45.52931995 24.61479172 45.53461246 27.99898197 45.54101562 31.38330078 C45.54035485 33.51741566 45.53907369 35.65153045 45.53710938 37.78564453 C45.53913361 38.80541382 45.54115784 39.82518311 45.54324341 40.87585449 C45.53851517 42.28236267 45.53851517 42.28236267 45.53369141 43.71728516 C45.53289581 44.54699829 45.53210022 45.37671143 45.53128052 46.23156738 C45.40429688 48.12939453 45.40429688 48.12939453 44.40429688 49.12939453 C42.87495057 49.22778667 41.34110122 49.25737992 39.80859375 49.25878906 C38.34202332 49.2635173 38.34202332 49.2635173 36.8458252 49.26834106 C35.78230835 49.26631683 34.7187915 49.2642926 33.62304688 49.26220703 C31.9973175 49.26364212 31.9973175 49.26364212 30.33874512 49.2651062 C28.04207298 49.26578818 25.74539893 49.26393264 23.44873047 49.25976562 C19.9195526 49.25441765 16.39050201 49.25971003 12.86132812 49.26611328 C10.63606743 49.2654525 8.41080681 49.26417135 6.18554688 49.26220703 C5.12203003 49.26423126 4.05851318 49.26625549 2.96276855 49.26834106 C1.98505493 49.2651889 1.00734131 49.26203674 0 49.25878906 C-0.86524292 49.25799347 -1.73048584 49.25719788 -2.62194824 49.25637817 C-4.59570312 49.12939453 -4.59570312 49.12939453 -5.59570312 48.12939453 C-5.69393057 46.66134161 -5.72368683 45.18861993 -5.72509766 43.71728516 C-5.7298259 42.31077698 -5.7298259 42.31077698 -5.73464966 40.87585449 C-5.73262543 39.85608521 -5.7306012 38.83631592 -5.72851562 37.78564453 C-5.72947235 36.74621704 -5.73042908 35.70678955 -5.73141479 34.63586426 C-5.73209675 32.433349 -5.73024139 30.23083174 -5.72607422 28.02832031 C-5.7207262 24.64399734 -5.72601871 21.25980709 -5.73242188 17.87548828 C-5.7317611 15.7413734 -5.73047994 13.60725861 -5.72851562 11.47314453 C-5.73053986 10.45337524 -5.73256409 9.43360596 -5.73464966 8.38293457 C-5.7314975 7.44526245 -5.72834534 6.50759033 -5.72509766 5.54150391 C-5.72430206 4.71179077 -5.72350647 3.88207764 -5.72268677 3.02722168 C-5.47148475 -0.72710443 -3.23044285 0.0029704 0 0 Z " fill="#FAFBFC" transform="translate(351.595703125,905.87060546875)"/>
<path d="M0 0 C0.93767212 -0.00315216 1.87534424 -0.00630432 2.84143066 -0.009552 C3.86119995 -0.00752777 4.88096924 -0.00550354 5.93164062 -0.00341797 C7.49078186 -0.00485306 7.49078186 -0.00485306 9.0814209 -0.00631714 C11.28393616 -0.0069991 13.48645342 -0.00514374 15.68896484 -0.00097656 C19.07328782 0.00437146 22.45747806 -0.00092105 25.84179688 -0.00732422 C27.97591175 -0.00666344 30.11002655 -0.00538228 32.24414062 -0.00341797 C33.26390991 -0.0054422 34.2836792 -0.00746643 35.33435059 -0.009552 C36.74085876 -0.00482376 36.74085876 -0.00482376 38.17578125 0 C39.42035095 0.00119339 39.42035095 0.00119339 40.69006348 0.00241089 C42.58789062 0.12939453 42.58789062 0.12939453 43.58789062 1.12939453 C43.68100952 2.63358192 43.7053509 4.14210809 43.70141602 5.64916992 C43.70134048 6.61009048 43.70126495 7.57101105 43.70118713 8.56105042 C43.69602585 9.60583054 43.69086456 10.65061066 43.68554688 11.72705078 C43.68413193 12.79104599 43.68271698 13.8550412 43.68125916 14.95127869 C43.67564126 18.36484536 43.66308573 21.77834753 43.65039062 25.19189453 C43.64537793 27.4998363 43.64081462 29.80777908 43.63671875 32.11572266 C43.62566602 37.7869688 43.60891049 43.45817706 43.58789062 49.12939453 C36.77027168 49.15466343 29.95266473 49.17222698 23.13500977 49.18432617 C20.81371611 49.18936787 18.49242565 49.19620105 16.17114258 49.20483398 C12.84260268 49.21690678 9.5141046 49.22262432 6.18554688 49.22705078 C4.61837669 49.23479271 4.61837669 49.23479271 3.01954651 49.24269104 C2.05862595 49.24276657 1.09770538 49.2428421 0.10766602 49.24291992 C-0.74282822 49.24514053 -1.59332245 49.24736115 -2.46958923 49.24964905 C-4.41210938 49.12939453 -4.41210938 49.12939453 -5.41210938 48.12939453 C-5.51033682 46.66134161 -5.54009308 45.18861993 -5.54150391 43.71728516 C-5.54623215 42.31077698 -5.54623215 42.31077698 -5.55105591 40.87585449 C-5.54903168 39.85608521 -5.54700745 38.83631592 -5.54492188 37.78564453 C-5.5458786 36.74621704 -5.54683533 35.70678955 -5.54782104 34.63586426 C-5.548503 32.433349 -5.54664764 30.23083174 -5.54248047 28.02832031 C-5.53713245 24.64399734 -5.54242496 21.25980709 -5.54882812 17.87548828 C-5.54816735 15.7413734 -5.54688619 13.60725861 -5.54492188 11.47314453 C-5.54694611 10.45337524 -5.54897034 9.43360596 -5.55105591 8.38293457 C-5.54790375 7.44526245 -5.54475159 6.50759033 -5.54150391 5.54150391 C-5.54070831 4.71179077 -5.53991272 3.88207764 -5.53909302 3.02722168 C-5.29217422 -0.66308986 -3.19049557 0.00305929 0 0 Z " fill="#F9FAFA" transform="translate(402.412109375,236.87060546875)"/>
<path d="M0 0 C1.46657043 -0.00472824 1.46657043 -0.00472824 2.96276855 -0.009552 C4.0262854 -0.00752777 5.08980225 -0.00550354 6.18554688 -0.00341797 C7.81127625 -0.00485306 7.81127625 -0.00485306 9.46984863 -0.00631714 C11.76652077 -0.00699912 14.06319482 -0.00514358 16.35986328 -0.00097656 C19.88904115 0.00437141 23.41809174 -0.00092097 26.94726562 -0.00732422 C29.17252632 -0.00666344 31.39778694 -0.00538228 33.62304688 -0.00341797 C34.68656372 -0.0054422 35.75008057 -0.00746643 36.8458252 -0.009552 C37.82353882 -0.00639984 38.80125244 -0.00324768 39.80859375 0 C40.67383667 0.00079559 41.53907959 0.00159119 42.43054199 0.00241089 C44.40429688 0.12939453 44.40429688 0.12939453 45.40429688 1.12939453 C45.49733706 2.60293801 45.52175953 4.08090044 45.51782227 5.55737305 C45.51774673 6.49827286 45.5176712 7.43917267 45.51759338 8.40858459 C45.5124321 9.43149094 45.50727081 10.45439728 45.50195312 11.50830078 C45.50053818 12.55009995 45.49912323 13.59189911 45.49766541 14.66526794 C45.49204767 18.00750547 45.47949218 21.3496771 45.46679688 24.69189453 C45.46178416 26.95165919 45.45722086 29.2114249 45.453125 31.47119141 C45.44207249 37.02394844 45.42531712 42.57666678 45.40429688 48.12939453 C45.07429688 48.12939453 44.74429688 48.12939453 44.40429688 48.12939453 C44.40429688 32.94939453 44.40429688 17.76939453 44.40429688 2.12939453 C28.56429687 2.12939453 12.72429687 2.12939453 -3.59570312 2.12939453 C-3.59570312 16.97939453 -3.59570312 31.82939453 -3.59570312 47.12939453 C-4.58570313 47.62439453 -4.58570313 47.62439453 -5.59570312 48.12939453 C-5.62097258 41.45419113 -5.6385358 34.77899997 -5.65063477 28.10375977 C-5.65567638 25.83096862 -5.6625095 23.55818073 -5.67114258 21.28540039 C-5.68321573 18.02635902 -5.688933 14.76736036 -5.69335938 11.50830078 C-5.69852066 10.48539444 -5.70368195 9.4624881 -5.70899963 8.40858459 C-5.70907516 7.46768478 -5.7091507 6.52678497 -5.70922852 5.55737305 C-5.71144913 4.72464371 -5.71366974 3.89191437 -5.71595764 3.03395081 C-5.47841293 -0.72821362 -3.23401356 0.00297368 0 0 Z " fill="#C4D4D9" transform="translate(351.595703125,905.87060546875)"/>
<path d="M0 0 C0.66 0.33 1.32 0.66 2 1 C-41 44 -41 44 -43.625 46.5 C-46.03888431 48.83759835 -46.03888431 48.83759835 -47.375 51.4375 C-49.64511687 55.01729969 -52.70890677 57.37614211 -56 60 C-56.66 59.34 -57.32 58.68 -58 58 C-38.86 38.86 -19.72 19.72 0 0 Z " fill="#E0E9ED" transform="translate(959,298)"/>
<path d="M0 0 C13.53 0 27.06 0 41 0 C40.67 0.99 40.34 1.98 40 3 C38.86981445 3.02505615 37.73962891 3.0501123 36.57519531 3.07592773 C32.37814183 3.17016956 28.18124737 3.27034926 23.984375 3.37231445 C22.16865766 3.41559986 20.35290129 3.45727944 18.53710938 3.49731445 C15.92566167 3.55517202 13.31440923 3.61882172 10.703125 3.68359375 C9.89256653 3.70030624 9.08200806 3.71701874 8.24688721 3.73423767 C4.68275277 3.82771396 1.43312065 4.04624584 -2 5 C-1.34 3.35 -0.68 1.7 0 0 Z " fill="#325E6F" transform="translate(1007,754)"/>
<path d="M0 0 C0.66 0.99 1.32 1.98 2 3 C1.57332031 3.35449219 1.14664063 3.70898438 0.70703125 4.07421875 C-6.24465843 9.99390501 -12.59307385 16.50517395 -19 23 C-19.66 22.34 -20.32 21.68 -21 21 C-14.07 14.07 -7.14 7.14 0 0 Z " fill="#13475C" transform="translate(717,479)"/>
<path d="M0 0 C0.99 0.33 1.98 0.66 3 1 C2.45730469 1.44730469 1.91460938 1.89460938 1.35546875 2.35546875 C-2.59777197 5.69613523 -5.36509956 8.53212533 -8 13 C-10.23551234 15.12424249 -12.58947022 17.07818037 -15 19 C-15.66 18.34 -16.32 17.68 -17 17 C-11.39 11.39 -5.78 5.78 0 0 Z " fill="#E9F0F3" transform="translate(918,339)"/>
<path d="M0 0 C0 4.20396554 -2.36944172 5.93320105 -5.125 8.8125 C-5.62620361 9.34713867 -6.12740723 9.88177734 -6.64379883 10.43261719 C-10.02612078 14.02568424 -13.46308226 17.55867463 -17 21 C-17.99 20.67 -18.98 20.34 -20 20 C-13.4 13.4 -6.8 6.8 0 0 Z " fill="#205165" transform="translate(684,511)"/>
<path d="M0 0 C0.33 0.99 0.66 1.98 1 3 C-3.66666667 7.66666667 -8.33333333 12.33333333 -13 17 C-13.33 16.34 -13.66 15.68 -14 15 C-9.79211991 9.24454091 -5.58490476 4.44512827 0 0 Z " fill="#16495D" transform="translate(597,557)"/>
<path d="M0 0 C0.66 0.33 1.32 0.66 2 1 C-2.32502115 6.96041977 -6.83367948 12.83103112 -13 17 C-13.99 17 -14.98 17 -16 17 C-11.01595832 10.96668638 -5.58084697 5.4815829 0 0 Z " fill="#194D62" transform="translate(905,297)"/>
<path d="M0 0 C1.43879577 0.01006151 2.87759845 0.01918169 4.31640625 0.02734375 C7.79441753 0.0490794 11.27216245 0.08342967 14.75 0.125 C14.75 0.455 14.75 0.785 14.75 1.125 C13.44180298 1.154729 13.44180298 1.154729 12.10717773 1.18505859 C8.84356807 1.26357436 5.58038246 1.35027969 2.31713867 1.44238281 C0.90999602 1.48045293 -0.49723669 1.51534245 -1.90454102 1.546875 C-3.93798823 1.5930078 -5.97082707 1.65091568 -8.00390625 1.7109375 C-9.22408447 1.7423584 -10.4442627 1.7737793 -11.70141602 1.80615234 C-15.42472067 2.14069902 -18.67052692 3.08177957 -22.25 4.125 C-25.6875 3.75 -25.6875 3.75 -28.25 3.125 C-28.25 2.795 -28.25 2.465 -28.25 2.125 C-18.78666536 0.12928487 -9.61154612 -0.11844035 0 0 Z " fill="#436E7E" transform="translate(630.25,472.875)"/>
<path d="M0 0 C0.90575383 3.34721486 1.10389209 6.27306478 1.0625 9.75 C1.05347656 10.73484375 1.04445313 11.7196875 1.03515625 12.734375 C1.02355469 13.48203125 1.01195312 14.2296875 1 15 C0.34 15 -0.32 15 -1 15 C-1 22.92 -1 30.84 -1 39 C-1.33 39 -1.66 39 -2 39 C-2.05878606 34.56255704 -2.09385813 30.12521627 -2.125 25.6875 C-2.14175781 24.44419922 -2.15851563 23.20089844 -2.17578125 21.91992188 C-2.21537695 14.37694091 -1.68648288 7.3591116 0 0 Z " fill="#587E8B" transform="translate(503,576)"/>
<path d="M0 0 C0.66 0.33 1.32 0.66 2 1 C-0.73767123 3.82473024 -3.4921069 6.63252092 -6.25 9.4375 C-7.02730469 10.23994141 -7.80460938 11.04238281 -8.60546875 11.86914062 C-9.73662109 13.01479492 -9.73662109 13.01479492 -10.890625 14.18359375 C-11.58188477 14.89056396 -12.27314453 15.59753418 -12.98535156 16.32592773 C-15.05471985 18.04546946 -16.3704323 18.60556484 -19 19 C-13.37095532 11.92348669 -6.6903009 6.04509384 0 0 Z " fill="#18495D" transform="translate(780,418)"/>
<path d="M0 0 C0.66 0.99 1.32 1.98 2 3 C1.45730469 3.44730469 0.91460938 3.89460938 0.35546875 4.35546875 C-3.48879484 7.60404465 -6.76332678 10.38686148 -9 15 C-9.66 14.67 -10.32 14.34 -11 14 C-10.52590352 9.68269587 -7.96603297 7.66352539 -4.9375 4.75 C-4.01839844 3.85796875 -3.09929688 2.9659375 -2.15234375 2.046875 C-1.44207031 1.37140625 -0.73179687 0.6959375 0 0 Z " fill="#1B5267" transform="translate(850,447)"/>
<path d="M0 0 C0.66 0 1.32 0 2 0 C0.46745644 5.87475032 -1.67669016 11.39473306 -4 17 C-4.66 16.67 -5.32 16.34 -6 16 C-4.25192871 10.53262809 -2.34205919 5.24175152 0 0 Z " fill="#1C4D61" transform="translate(1003,762)"/>
<path d="M0 0 C0.99 0.33 1.98 0.66 3 1 C2.06725891 2.12894876 1.12859878 3.25300876 0.1875 4.375 C-0.33457031 5.00148438 -0.85664062 5.62796875 -1.39453125 6.2734375 C-3 8 -3 8 -6 10 C-6.66 9.34 -7.32 8.68 -8 8 C-5.36 5.36 -2.72 2.72 0 0 Z " fill="#DBE3E6" transform="translate(736,457)"/>
<path d="M0 0 C0 0.99 0 1.98 0 3 C-1.91040052 3.8680908 -3.82860737 4.71901783 -5.75 5.5625 C-6.81734375 6.03816406 -7.8846875 6.51382813 -8.984375 7.00390625 C-11.98369837 7.9946154 -13.13421241 8.16161779 -16 7 C-13.71070947 5.82845707 -11.41881638 4.66261926 -9.125 3.5 C-8.47402344 3.16613281 -7.82304688 2.83226562 -7.15234375 2.48828125 C-2.2265625 0 -2.2265625 0 0 0 Z " fill="#316173" transform="translate(819,962)"/>
<path d="M0 0 C0.66 0.33 1.32 0.66 2 1 C0.71937515 2.7074998 -0.61767557 4.37373596 -2 6 C-2.66 6 -3.32 6 -4 6 C-4.433125 6.928125 -4.433125 6.928125 -4.875 7.875 C-6 10 -6 10 -8 12 C-8.99 11.67 -9.98 11.34 -11 11 C-7.37 7.37 -3.74 3.74 0 0 Z " fill="#194D62" transform="translate(545,504)"/>
<path d="M0 0 C0.6875 1.6875 0.6875 1.6875 1 4 C-0.98911558 8.56326516 -4.1627179 11.01544726 -8 14 C-8.66 13.67 -9.32 13.34 -10 13 C-9.52949219 12.48050781 -9.05898438 11.96101562 -8.57421875 11.42578125 C-5.32559823 7.78705723 -2.30339528 4.33580287 0 0 Z " fill="#1D5166" transform="translate(706,648)"/>
<path d="M0 0 C-1.40844718 3.21524305 -3.10344786 5.32183868 -5.625 7.75 C-6.57246094 8.67039062 -6.57246094 8.67039062 -7.5390625 9.609375 C-8.02117188 10.06828125 -8.50328125 10.5271875 -9 11 C-9.66 10.34 -10.32 9.68 -11 9 C-9.33333333 7.33333333 -7.66666667 5.66666667 -6 4 C-5.278125 3.236875 -4.55625 2.47375 -3.8125 1.6875 C-2 0 -2 0 0 0 Z " fill="#295668" transform="translate(744,511)"/>
<path d="M0 0 C0.66 0.33 1.32 0.66 2 1 C0.92173635 2.27513763 -0.16285519 3.54492569 -1.25 4.8125 C-1.85328125 5.52019531 -2.4565625 6.22789062 -3.078125 6.95703125 C-4.92370398 8.91889671 -6.79945332 10.45669625 -9 12 C-9.66 11.67 -10.32 11.34 -11 11 C-7.37 7.37 -3.74 3.74 0 0 Z " fill="#E2EBEE" transform="translate(573,531)"/>
<path d="M0 0 C0.66 1.32 1.32 2.64 2 4 C1.1015625 6.359375 1.1015625 6.359375 -0.375 8.75 C-1.09816406 9.94882812 -1.09816406 9.94882812 -1.8359375 11.171875 C-2.22007812 11.77515625 -2.60421875 12.3784375 -3 13 C-3.66 12.01 -4.32 11.02 -5 10 C-3.35 6.7 -1.7 3.4 0 0 Z " fill="#134960" transform="translate(993,784)"/>
<path d="M0 0 C0.70703125 1.734375 0.70703125 1.734375 1 4 C-0.36328125 6.140625 -0.36328125 6.140625 -2.3125 8.25 C-2.94800781 8.95640625 -3.58351563 9.6628125 -4.23828125 10.390625 C-6 12 -6 12 -8 12 C-6.59023295 8.96147295 -4.91129772 6.4060405 -2.875 3.75 C-2.06675781 2.69039062 -2.06675781 2.69039062 -1.2421875 1.609375 C-0.83226562 1.07828125 -0.42234375 0.5471875 0 0 Z " fill="#1D5064" transform="translate(831,753)"/>
<path d="M0 0 C0.99 0.33 1.98 0.66 3 1 C0.03 3.97 -2.94 6.94 -6 10 C-6.66 9.34 -7.32 8.68 -8 8 C-5.36 5.36 -2.72 2.72 0 0 Z " fill="#F5F7F8" transform="translate(727,466)"/>
<path d="M0 0 C0.66 0.66 1.32 1.32 2 2 C-0.64 4.97 -3.28 7.94 -6 11 C-6.66 10.01 -7.32 9.02 -8 8 C-5.36 5.36 -2.72 2.72 0 0 Z " fill="#12485D" transform="translate(312,296)"/>
<path d="M0 0 C0.99 0.33 1.98 0.66 3 1 C-5.261959 8.66742597 -5.261959 8.66742597 -10 10 C-3.25842697 1.79775281 -3.25842697 1.79775281 0 0 Z " fill="#1E5063" transform="translate(842,358)"/>
<path d="M0 0 C0.99 0.66 1.98 1.32 3 2 C2.34 2 1.68 2 1 2 C0.67 2.99 0.34 3.98 0 5 C-2.79899966 8.10159421 -5.22637281 10.25399339 -9 12 C-6 8 -3 4 0 0 Z " fill="#D7E2E6" transform="translate(322,341)"/>
<path d="M0 0 C1.98 0.495 1.98 0.495 4 1 C3.19315107 3.42054679 2.33732102 5.80101817 1.4375 8.1875 C1.16808594 8.90292969 0.89867187 9.61835937 0.62109375 10.35546875 C0.41613281 10.89816406 0.21117187 11.44085937 0 12 C-1.30660357 7.70272603 -0.6596762 4.39784135 0 0 Z " fill="#23586F" transform="translate(447,962)"/>
<path d="M0 0 C2.12966005 2.12966005 2.47624662 3.04068204 3.1875 5.875 C3.36667969 6.55304687 3.54585937 7.23109375 3.73046875 7.9296875 C4.02970718 10.22818556 3.69377386 11.80550964 3 14 C3 13.34 3 12.68 3 12 C2.34 12 1.68 12 1 12 C0.01751476 7.9472484 -0.08159574 4.16138263 0 0 Z " fill="#215263" transform="translate(539,610)"/>
<path d="M0 0 C0.33 0.99 0.66 1.98 1 3 C-1.31 5.31 -3.62 7.62 -6 10 C-6.66 9.34 -7.32 8.68 -8 8 C-5.36 5.36 -2.72 2.72 0 0 Z " fill="#11495D" transform="translate(827,372)"/>
<path d="M0 0 C0 0.99 0 1.98 0 3 C-3.78187881 4.83691257 -5.94568308 5.15837626 -10 4 C-6.86268382 1.90845588 -3.85464592 0 0 0 Z " fill="#23586A" transform="translate(785,978)"/>
<path d="M0 0 C0.66 0.33 1.32 0.66 2 1 C0.73058503 4.91402949 -0.51167694 6.79072873 -4 9 C-4.33 8.34 -4.66 7.68 -5 7 C-3.35 4.69 -1.7 2.38 0 0 Z " fill="#1A5369" transform="translate(588,565)"/>
<path d="M0 0 C0.99 0.33 1.98 0.66 3 1 C-0.3 3.97 -3.6 6.94 -7 10 C-7.66 9.67 -8.32 9.34 -9 9 C-6.03 6.03 -3.06 3.06 0 0 Z " fill="#E5ECEF" transform="translate(337,325)"/>
<path d="M0 0 C0.66 0.33 1.32 0.66 2 1 C-0.31 3.64 -2.62 6.28 -5 9 C-5.66 8.34 -6.32 7.68 -7 7 C-4.69 4.69 -2.38 2.38 0 0 Z " fill="#184C60" transform="translate(334,274)"/>
<path d="M0 0 C0 0.99 0 1.98 0 3 C-2.5 5.1875 -2.5 5.1875 -5 7 C-3.70700306 4.11562221 -2.34058637 2.12780579 0 0 Z M-8 6 C-7.01 6.33 -6.02 6.66 -5 7 C-5.99 7.99 -6.98 8.98 -8 10 C-8.66 9.34 -9.32 8.68 -10 8 C-9.34 7.34 -8.68 6.68 -8 6 Z " fill="#F3F6F7" transform="translate(911,348)"/>
<path d="M0 0 C0.99 0.33 1.98 0.66 3 1 C1.02 3.31 -0.96 5.62 -3 8 C-3.66 7.34 -4.32 6.68 -5 6 C-4.34 5.01 -3.68 4.02 -3 3 C-2.34 3 -1.68 3 -1 3 C-0.67 2.01 -0.34 1.02 0 0 Z " fill="#EDF3F4" transform="translate(305,299)"/>
<path d="M0 0 C0.33 0 0.66 0 1 0 C0.98839844 0.61488281 0.97679687 1.22976563 0.96484375 1.86328125 C0.95582031 2.67152344 0.94679688 3.47976563 0.9375 4.3125 C0.92589844 5.11300781 0.91429687 5.91351562 0.90234375 6.73828125 C0.90342145 9.16861334 0.90342145 9.16861334 2 12 C0.68 12.99 -0.64 13.98 -2 15 C-1.38487182 9.99109914 -0.7282448 4.99367864 0 0 Z " fill="#4C7686" transform="translate(719,610)"/>
<path d="M0 0 C0 3 0 3 -1.53125 4.60546875 C-2.1809375 5.12753906 -2.830625 5.64960938 -3.5 6.1875 C-4.1496875 6.71730469 -4.799375 7.24710937 -5.46875 7.79296875 C-5.9740625 8.19128906 -6.479375 8.58960938 -7 9 C-7.66 8.67 -8.32 8.34 -9 8 C-6.03 5.36 -3.06 2.72 0 0 Z " fill="#215165" transform="translate(864,337)"/>
<path d="M0 0 C4.29 0.33 8.58 0.66 13 1 C13 1.33 13 1.66 13 2 C11.98679687 2.09087891 11.98679687 2.09087891 10.953125 2.18359375 C10.06109375 2.26738281 9.1690625 2.35117187 8.25 2.4375 C7.36828125 2.51871094 6.4865625 2.59992187 5.578125 2.68359375 C3.30649548 2.96238465 1.20148177 3.38790577 -1 4 C-0.67 2.68 -0.34 1.36 0 0 Z " fill="#1C576B" transform="translate(1006,755)"/>
<path d="M0 0 C0.66 0.66 1.32 1.32 2 2 C1.625 5.625 1.625 5.625 1 9 C0.01 9 -0.98 9 -2 9 C-1.34 6.03 -0.68 3.06 0 0 Z " fill="#1D5367" transform="translate(578,581)"/>
<path d="M0 0 C0.99 0.33 1.98 0.66 3 1 C1.35 2.98 -0.3 4.96 -2 7 C-2.66 6.67 -3.32 6.34 -4 6 C-4 5.34 -4 4.68 -4 4 C-3.34 4 -2.68 4 -2 4 C-1.34 2.68 -0.68 1.36 0 0 Z " fill="#E7EDEF" transform="translate(748,445)"/>
<path d="M0 0 C0.33 0.99 0.66 1.98 1 3 C-0.65 4.65 -2.3 6.3 -4 8 C-4.99 7.67 -5.98 7.34 -7 7 C-4.69 4.69 -2.38 2.38 0 0 Z " fill="#194C60" transform="translate(760,437)"/>
<path d="M0 0 C0.99 0.66 1.98 1.32 3 2 C0.36 3.98 -2.28 5.96 -5 8 C-5.66 7.67 -6.32 7.34 -7 7 C-4.69 4.69 -2.38 2.38 0 0 Z " fill="#25556A" transform="translate(882,319)"/>
<path d="M0 0 C3.81684226 1.55500981 6.19195732 4.03595495 9 7 C6 7 6 7 3.375 4.625 C1 2 1 2 0 0 Z " fill="#1A4C5E" transform="translate(952,288)"/>
<path d="M0 0 C0.33 0.99 0.66 1.98 1 3 C-0.62339805 4.70884005 -2.29319053 6.37446717 -4 8 C-4.66 8 -5.32 8 -6 8 C-4.55746343 4.63408134 -2.66735273 2.48952921 0 0 Z " fill="#1E5064" transform="translate(723,571)"/>
<path d="M0 0 C0.99 0.33 1.98 0.66 3 1 C1.47764564 4.04470873 -1.18424486 5.20270948 -4 7 C-4 4 -4 4 -2 1.8125 C-1.34 1.214375 -0.68 0.61625 0 0 Z " fill="#1D556B" transform="translate(746,549)"/>
<path d="M0 0 C2 3 2 3 1.625 6.1875 C1.41875 7.115625 1.2125 8.04375 1 9 C0.01 9.33 -0.98 9.66 -2 10 C-1.34 6.7 -0.68 3.4 0 0 Z " fill="#184A5F" transform="translate(355,517)"/>
<path d="M0 0 C0.99 0.33 1.98 0.66 3 1 C-0.465 3.97 -0.465 3.97 -4 7 C-4 4 -4 4 -2 1.8125 C-1.34 1.214375 -0.68 0.61625 0 0 Z " fill="#11475C" transform="translate(854,346)"/>
<path d="M0 0 C0.66 0.66 1.32 1.32 2 2 C0.35 3.65 -1.3 5.3 -3 7 C-3 3 -3 3 -1.5 1.25 C-1.005 0.8375 -0.51 0.425 0 0 Z " fill="#E7EDEF" transform="translate(941,860)"/>
<path d="M0 0 C0.66 0.33 1.32 0.66 2 1 C1.01 3.97 0.02 6.94 -1 10 C-1.66 8.68 -2.32 7.36 -3 6 C-2.1875 3.875 -2.1875 3.875 -1 2 C-0.67 1.34 -0.34 0.68 0 0 Z " fill="#316475" transform="translate(547,562)"/>
<path d="M0 0 C0 3 0 3 -1.2421875 4.60546875 C-1.78101563 5.12753906 -2.31984375 5.64960938 -2.875 6.1875 C-3.40867187 6.71730469 -3.94234375 7.24710937 -4.4921875 7.79296875 C-6 9 -6 9 -8 9 C-6.90101298 5.70303895 -6.05402613 4.95329411 -3.4375 2.8125 C-2.79683594 2.28269531 -2.15617188 1.75289063 -1.49609375 1.20703125 C-0.75552734 0.60955078 -0.75552734 0.60955078 0 0 Z " fill="#E8EFF1" transform="translate(755,501)"/>
<path d="M0 0 C0.66 0.33 1.32 0.66 2 1 C0.875 2.9375 0.875 2.9375 -1 5 C-4.1875 5.75 -4.1875 5.75 -7 6 C-4.74259377 3.66475218 -2.7194239 1.81294927 0 0 Z " fill="#255567" transform="translate(561,492)"/>
<path d="M0 0 C0.99 0.33 1.98 0.66 3 1 C-0.465 3.97 -0.465 3.97 -4 7 C-4 4 -4 4 -2 1.8125 C-1.34 1.214375 -0.68 0.61625 0 0 Z " fill="#1A5065" transform="translate(442,382)"/>
<path d="M0 0 C-0.33 0.99 -0.66 1.98 -1 3 C-3.64 2.67 -6.28 2.34 -9 2 C-5.5647952 -0.29013653 -4.014669 -0.17842973 0 0 Z " fill="#CEDCE0" transform="translate(587,354)"/>
<path d="M0 0 C0.66 0.33 1.32 0.66 2 1 C1.01 2.485 1.01 2.485 0 4 C-3.625 4.6875 -3.625 4.6875 -7 5 C-4.702779 3.25728062 -2.40133271 1.60088848 0 0 Z " fill="#255466" transform="translate(830,955)"/>
<path d="M0 0 C0.99 0.33 1.98 0.66 3 1 C0.03 3.475 0.03 3.475 -3 6 C-3.66 5.67 -4.32 5.34 -5 5 C-3.35 3.35 -1.7 1.7 0 0 Z " fill="#215166" transform="translate(931,875)"/>
<path d="M0 0 C0 0.99 0 1.98 0 3 C-1.65 3.66 -3.3 4.32 -5 5 C-5.66 4.34 -6.32 3.68 -7 3 C-2.25 0 -2.25 0 0 0 Z " fill="#20556A" transform="translate(605,553)"/>
<path d="M0 0 C0 0.33 0 0.66 0 1 C-5.16044765 2.512545 -8.65998179 3.33500455 -14 2 C-14 1.67 -14 1.34 -14 1 C-9.23692563 0.04738513 -4.8333472 -0.08333357 0 0 Z " fill="#ADC2C9" transform="translate(625,512)"/>
<path d="M0 0 C5.75 1.75 5.75 1.75 8 4 C7.01 4.66 6.02 5.32 5 6 C4.67 4.68 4.34 3.36 4 2 C3.01 2.33 2.02 2.66 1 3 C0.67 2.01 0.34 1.02 0 0 Z " fill="#2B596B" transform="translate(667,478)"/>
<path d="M0 0 C0.66 0.66 1.32 1.32 2 2 C-0.97 4.475 -0.97 4.475 -4 7 C-4 4 -4 4 -2 1.8125 C-1.34 1.214375 -0.68 0.61625 0 0 Z " fill="#0E495D" transform="translate(790,408)"/>
<path d="M0 0 C-0.33 0.99 -0.66 1.98 -1 3 C-3.375 3.625 -3.375 3.625 -6 4 C-6.66 3.34 -7.32 2.68 -8 2 C-5.09399739 0.74335022 -3.20395416 0 0 0 Z " fill="#2E5D71" transform="translate(533,329)"/>
<path d="M0 0 C2 1 2 1 2 1 Z M-3 3 C-3 3.99 -3 4.98 -3 6 C-4.98 6.99 -4.98 6.99 -7 8 C-7 7.01 -7 6.02 -7 5 C-5.68 4.34 -4.36 3.68 -3 3 Z " fill="#0F485D" transform="translate(880,323)"/>
<path d="M0 0 C-0.33 1.65 -0.66 3.3 -1 5 C-3.475 4.01 -3.475 4.01 -6 3 C-4.60722783 0.21445565 -3.01148006 0 0 0 Z " fill="#225163" transform="translate(478,186)"/>
</svg>
