<?xml version="1.0" encoding="UTF-8"?>
<svg version="1.1" xmlns="http://www.w3.org/2000/svg" width="1254" height="1254">
<path d="M0 0 C1.11211853 -0.00811707 2.22423706 -0.01623413 3.37005615 -0.02459717 C29.63202794 -0.11707386 54.99999789 3.7063584 80.5625 9.5 C80.5625 10.16 80.5625 10.82 80.5625 11.5 C82.0475 11.67789062 82.0475 11.67789062 83.5625 11.859375 C87.68745098 12.45161194 91.58111025 13.54032339 95.5625 14.75 C96.29871582 14.97107422 97.03493164 15.19214844 97.79345703 15.41992188 C100.05276263 16.10406074 102.30830315 16.7992237 104.5625 17.5 C105.24538086 17.71205078 105.92826172 17.92410156 106.63183594 18.14257812 C114.87812609 20.73044488 122.79999739 23.68647523 130.5625 27.5 C131.73941406 28.07492187 132.91632813 28.64984375 134.12890625 29.2421875 C137.54338092 30.92332556 140.94000703 32.63787382 144.33105469 34.36572266 C145.85551866 35.14063071 147.38232837 35.91093684 148.91113281 36.67724609 C159.81698049 42.15227339 169.87182427 48.06995499 179.5625 55.5 C178.28227125 58.30969467 176.95535871 60.3539238 174.76513672 62.52441406 C174.20470673 63.08469299 173.64427673 63.64497192 173.06686401 64.222229 C172.46472076 64.81404968 171.86257751 65.40587036 171.2421875 66.015625 C170.31419846 66.9393692 170.31419846 66.9393692 169.36746216 67.8817749 C167.39546186 69.84260336 165.41661263 71.79635301 163.4375 73.75 C162.09719836 75.08026799 160.75734917 76.410992 159.41796875 77.7421875 C156.13803411 81.0001015 152.85194058 84.25168533 149.5625 87.5 C145.21886508 85.82341166 141.27307188 83.70112238 137.25 81.375 C108.57575842 65.10778757 77.16706545 53.10648637 44.5 47.875 C43.43168945 47.69324219 43.43168945 47.69324219 42.34179688 47.5078125 C30.08779929 45.49645161 17.94079691 45.31368115 5.55029297 45.31469727 C2.59718073 45.3125255 -0.35554801 45.29436147 -3.30859375 45.27539062 C-19.93529586 45.22431133 -36.13302077 46.32353323 -52.375 50.0625 C-53.4976123 50.31717041 -54.62022461 50.57184082 -55.77685547 50.83422852 C-82.18601691 57.0532073 -106.71537739 66.4934945 -130.4375 79.5 C-131.67574049 80.16544043 -132.91401865 80.83081077 -134.15234375 81.49609375 C-155.71822682 93.37832715 -178.1352415 109.5649197 -193.875 128.68359375 C-195.12447845 130.13611244 -196.45657785 131.51740174 -197.8125 132.87109375 C-216.88264222 151.96961416 -230.95351331 176.25152155 -242.4375 200.5 C-242.76459961 201.18078613 -243.09169922 201.86157227 -243.42871094 202.56298828 C-252.24580901 221.035884 -258.61124159 240.40084536 -262.4375 260.5 C-262.64503906 261.55719238 -262.85257812 262.61438477 -263.06640625 263.70361328 C-263.76320646 267.25878749 -264.44682749 270.81622747 -265.125 274.375 C-265.33987061 275.49237549 -265.55474121 276.60975098 -265.77612305 277.76098633 C-278.05809999 344.0129459 -257.03175379 415.61518619 -219.84472656 470.48339844 C-215.97390012 476.03041898 -211.75010857 481.2929134 -207.4375 486.5 C-206.69306641 487.39887939 -206.69306641 487.39887939 -205.93359375 488.31591797 C-200.5151407 494.99456528 -200.5151407 494.99456528 -194.625 501.23828125 C-193.4375 502.5 -193.4375 502.5 -193.4375 504.5 C-192.7775 504.5 -192.1175 504.5 -191.4375 504.5 C-188.94932301 506.73935929 -186.84799145 508.65487055 -185.375 511.6875 C-184.59506062 513.64256423 -184.59506062 513.64256423 -182.67578125 514.33984375 C-179.86563857 515.79640985 -177.97187074 517.68285541 -175.6875 519.875 C-141.65579655 551.58927871 -94.19734563 574.83487954 -48.4375 582.5 C-47.49406738 582.65952148 -46.55063477 582.81904297 -45.57861328 582.98339844 C-32.90604712 585.10155745 -20.29976413 587.15585915 -7.4375 587.5 C-6.16777344 587.5515625 -4.89804687 587.603125 -3.58984375 587.65625 C58.70033332 589.41681674 121.1530423 566.96373706 170.1875 529.25 C170.9096167 528.69594482 171.6317334 528.14188965 172.37573242 527.57104492 C176.80462087 524.09432889 180.82033642 520.37755483 184.73461914 516.33007812 C186.53812181 514.5244075 188.41396934 512.88157538 190.375 511.25 C200.3907917 502.58399273 208.6210474 492.03780943 216.5625 481.5 C216.97854492 480.95150391 217.39458984 480.40300781 217.82324219 479.83789062 C244.56951007 444.33174278 260.50985792 402.92130276 268.6875 359.5 C268.85846191 358.61006348 269.02942383 357.72012695 269.20556641 356.80322266 C271.61223641 343.64212101 271.74895948 330.4725523 271.74780273 317.13647461 C271.74998252 314.33496742 271.76818572 311.53385951 271.78710938 308.73242188 C271.83335158 294.04777363 270.9130201 279.54122772 267.9375 265.125 C267.6914502 263.92423828 267.6914502 263.92423828 267.44042969 262.69921875 C263.302867 243.42440832 257.6019807 224.50647422 249.5625 206.5 C249.16192383 205.59475586 248.76134766 204.68951172 248.34863281 203.75683594 C242.91962071 191.61724968 236.90348329 180.1811279 229.45043945 169.14868164 C228.64546021 167.92459595 228.64546021 167.92459595 227.82421875 166.67578125 C227.33912842 165.96333252 226.85403809 165.25088379 226.35424805 164.5168457 C225.5625 162.5 225.5625 162.5 226.26416016 160.39453125 C228.19857237 157.57184626 230.70009639 155.43512852 233.25 153.1875 C239.30166896 147.75179677 245.0516747 142.06707675 250.71166992 136.2253418 C251.31599854 135.60957275 251.92032715 134.99380371 252.54296875 134.359375 C253.07817139 133.80733398 253.61337402 133.25529297 254.16479492 132.68652344 C255.5625 131.5 255.5625 131.5 257.5625 131.5 C259.16185744 133.61299724 260.62286628 135.71816793 262.0625 137.9375 C262.72245972 138.9416394 262.72245972 138.9416394 263.39575195 139.96606445 C267.98534451 147.022145 272.23415602 154.271203 276.43701172 161.56201172 C277.45361778 163.31251474 278.49306094 165.04970643 279.53515625 166.78515625 C285.27402266 176.3583422 289.89569126 186.2354741 293.5703125 196.7734375 C294.61014116 199.63091942 295.7895908 202.39829619 297 205.1875 C301.99182069 217.10986073 305.13819182 229.35452441 307.86328125 241.96240234 C309.00743257 247.25749845 309.00743257 247.25749845 310.609375 252.42578125 C312.09164497 257.2067094 312.53511696 262.10311293 313.125 267.0625 C313.37479001 269.10565418 313.62604157 271.14863032 313.87890625 273.19140625 C314.04048218 274.54020874 314.04048218 274.54020874 314.20532227 275.91625977 C314.4378672 277.59843544 314.7239476 279.27434335 315.07055664 280.93676758 C317.10260128 291.52457736 316.72850976 302.63842015 316.6875 313.375 C316.68628143 314.07322876 316.68506287 314.77145752 316.68380737 315.49084473 C316.6309937 341.28312027 316.6309937 341.28312027 315.05078125 347.51953125 C314.40038044 350.15755692 314.32830458 352.72533564 314.1875 355.4375 C313.77712761 361.33494843 312.67249096 366.80128032 311.24609375 372.52734375 C310.67686743 375.00266505 310.32127263 377.28967861 310.125 379.8125 C309.7305914 384.15904381 308.73547677 388.33515876 307.6875 392.5625 C307.52580322 393.22354736 307.36410645 393.88459473 307.19750977 394.56567383 C306.1540597 398.65780394 304.8260199 402.5432047 303.30322266 406.47973633 C302.06180956 409.86559439 301.14953644 413.33927722 300.1875 416.8125 C298.53899476 422.55878888 296.67901414 427.94034476 294.05859375 433.328125 C292.83382993 435.92475221 291.69981863 438.52249654 290.59765625 441.171875 C279.9968336 466.65292635 266.54365563 489.73915036 249.5625 511.5 C248.85480469 512.42167969 248.14710938 513.34335937 247.41796875 514.29296875 C242.98154213 519.97629329 238.18255446 525.29324431 233.2734375 530.56640625 C230.88367263 533.15244863 228.56383085 535.78390588 226.25 538.4375 C216.4510408 549.31748317 205.29784434 558.78371964 193.5625 567.5 C192.91974121 567.97791992 192.27698242 568.45583984 191.61474609 568.94824219 C180.38091174 577.23097692 168.65461106 584.54186857 156.5625 591.5 C155.92699219 591.8707666 155.29148437 592.2415332 154.63671875 592.62353516 C130.36779351 606.68848047 102.91203104 616.23008133 75.75878906 622.91870117 C73.36364489 623.55263162 71.01446988 624.29185464 68.65234375 625.0390625 C63.6240084 626.56753332 58.64177929 627.39278304 53.4375 628.0625 C52.07443726 628.2469165 52.07443726 628.2469165 50.68383789 628.43505859 C47.97775819 628.79846612 45.27037864 629.15028521 42.5625 629.5 C41.0637747 629.69901261 39.56507474 629.89821624 38.06640625 630.09765625 C15.90660395 632.98705485 -5.88607125 633.24765701 -28.125 631.1875 C-29.4234082 631.06987305 -30.72181641 630.95224609 -32.05957031 630.83105469 C-46.04106674 629.4361159 -59.51257232 626.39785133 -73.0625 622.75 C-73.704151 622.57803101 -74.345802 622.40606201 -75.00689697 622.22888184 C-83.5084973 619.94359868 -91.95246875 617.51483075 -100.3125 614.75 C-101.13057129 614.4809082 -101.94864258 614.21181641 -102.79150391 613.93457031 C-107.28348397 612.4010915 -111.46883843 610.57593301 -115.68212891 608.39257812 C-117.80025109 607.31554687 -119.96159234 606.45379541 -122.1875 605.625 C-128.13380056 603.29383163 -133.77537712 600.4463872 -139.4375 597.5 C-140.26378906 597.07203125 -141.09007812 596.6440625 -141.94140625 596.203125 C-162.01079317 585.52457797 -181.11405711 573.24495355 -198.4375 558.5 C-199.96117187 557.25283203 -199.96117187 557.25283203 -201.515625 555.98046875 C-216.06823744 543.96089754 -229.99250906 530.53557633 -241.4375 515.5 C-242.30703422 514.4169671 -243.1796365 513.33639295 -244.0546875 512.2578125 C-250.7167832 504.00490742 -256.75565662 495.4538502 -262.4375 486.5 C-262.80552734 485.92233887 -263.17355469 485.34467773 -263.55273438 484.74951172 C-270.43612653 473.85286714 -276.28241287 462.41313469 -282.13818359 450.94091797 C-283.0435856 449.24001431 -284.00627243 447.56890436 -285.01074219 445.92456055 C-286.23738883 443.84005888 -287.1048379 441.99496211 -287.8671875 439.71484375 C-288.10260254 439.02559814 -288.33801758 438.33635254 -288.58056641 437.6262207 C-288.82210449 436.90394287 -289.06364258 436.18166504 -289.3125 435.4375 C-291.06612007 430.31065006 -292.89246465 425.28214886 -295.0625 420.3125 C-299.93342645 408.87438197 -302.48252851 396.54337122 -305.4375 384.5 C-305.94216797 382.64568359 -305.94216797 382.64568359 -306.45703125 380.75390625 C-307.76993814 375.50992671 -308.35197158 370.17159219 -309 364.8125 C-309.24975431 362.78756891 -309.50100422 360.76282161 -309.75390625 358.73828125 C-309.86162354 357.85180908 -309.96934082 356.96533691 -310.08032227 356.05200195 C-310.31222741 354.3950611 -310.59804619 352.74446132 -310.94580078 351.10791016 C-313.23021867 338.99164806 -312.62387536 326.02798754 -312.62280273 313.74536133 C-312.62499999 310.93751078 -312.64327177 308.1300478 -312.66210938 305.32226562 C-312.69435998 294.84813437 -312.1356667 284.83994834 -310.4375 274.5 C-310.14288871 272.3962436 -309.85079607 270.29213113 -309.5625 268.1875 C-307.84383483 257.22593476 -305.47205791 246.29156289 -302.08203125 235.72265625 C-301.38199126 233.30857896 -300.93453579 230.91246471 -300.5 228.4375 C-299.70088417 224.17554892 -298.28836375 220.60117938 -296.4375 216.6953125 C-295.15391818 213.87744929 -294.22315459 211.00105721 -293.26953125 208.05859375 C-283.02186511 176.54581758 -265.86819251 147.48139678 -245.4375 121.5 C-244.65632813 120.50484375 -243.87515625 119.5096875 -243.0703125 118.484375 C-235.08165515 108.53409004 -226.33746325 99.31750049 -217.375 90.25 C-216.71935059 89.58129883 -216.06370117 88.91259766 -215.38818359 88.22363281 C-214.46706787 87.3008252 -214.46706787 87.3008252 -213.52734375 86.359375 C-212.97941162 85.80733398 -212.43147949 85.25529297 -211.86694336 84.68652344 C-210.4375 83.5 -210.4375 83.5 -208.4375 83.5 C-208.20675781 82.92507813 -207.97601563 82.35015625 -207.73828125 81.7578125 C-206.1025871 78.91867971 -204.19127305 77.41148608 -201.625 75.375 C-200.64015625 74.59125 -199.6553125 73.8075 -198.640625 73 C-197.57357072 72.16582933 -196.50584833 71.33251269 -195.4375 70.5 C-194.90060547 70.07847656 -194.36371094 69.65695312 -193.81054688 69.22265625 C-186.84237164 63.75774647 -179.79253813 58.43722172 -172.4375 53.5 C-171.84517578 53.10200195 -171.25285156 52.70400391 -170.64257812 52.29394531 C-159.88505937 45.10271994 -148.8512459 38.59219634 -137.4375 32.5 C-136.48101562 31.98566406 -135.52453125 31.47132813 -134.5390625 30.94140625 C-129.11917771 28.12622337 -123.53784448 25.91783383 -117.80859375 23.80859375 C-115.22339837 22.80507063 -112.733924 21.73976138 -110.21484375 20.58984375 C-75.85326669 5.19035304 -37.30650912 0.27088864 0 0 Z " fill="#FBFAFB" transform="translate(625.4375,311.5)"/>
<path d="M0 0 C0.79719955 0.00222061 1.59439911 0.00444122 2.41575623 0.00672913 C3.31661453 0.00680466 4.21747284 0.00688019 5.14562988 0.00695801 C6.12478867 0.01211929 7.10394745 0.01728058 8.11277771 0.02259827 C9.11018478 0.02401321 10.10759186 0.02542816 11.13522339 0.02688599 C14.3348027 0.03250337 17.53431315 0.04505881 20.73387146 0.05775452 C22.89728191 0.06276728 25.06069345 0.06733057 27.22410583 0.07142639 C32.53988471 0.08247845 37.85562317 0.09923348 43.17137146 0.12025452 C42.87437228 1.53375084 42.57255359 2.94623491 42.26878357 4.35829163 C42.10124069 5.14497726 41.93369781 5.9316629 41.76107788 6.7421875 C40.81415116 10.56079132 39.30565322 14.08528651 37.73387146 17.68275452 C37.38751648 18.48793518 37.0411615 19.29311584 36.68431091 20.12269592 C35.52645477 22.79451556 34.35165461 25.45826929 33.17137146 28.12025452 C32.75145935 29.06981018 32.33154724 30.01936584 31.89891052 30.99769592 C13.53402148 72.30845562 -9.5892081 111.98722151 -39.32862854 146.22181702 C-41.66659145 148.93239277 -43.90926716 151.69722242 -46.14112854 154.49525452 C-55.34787002 165.74258268 -65.63198035 176.0272865 -75.86500549 186.3318634 C-76.94922077 187.42413455 -78.03195277 188.51788043 -79.11305237 189.61323547 C-85.27552776 195.84834312 -91.51128393 201.71603372 -98.3974762 207.15663147 C-100.87118284 209.1546253 -103.19576823 211.25963637 -105.51612854 213.43275452 C-112.22290259 219.51833599 -119.49988024 224.81611837 -126.82862854 230.12025452 C-127.60029358 230.67906311 -128.37195862 231.2378717 -129.16700745 231.81361389 C-195.55600124 279.62989833 -274.32585066 310.54929877 -355.82862854 319.12025452 C-356.71550354 319.22321838 -357.60237854 319.32618225 -358.51612854 319.43226624 C-393.37772428 323.39551877 -430.07841058 322.87833272 -464.82862854 318.12025452 C-466.0993219 317.94864807 -467.37001526 317.77704163 -468.67921448 317.60023499 C-495.94269912 313.80289377 -522.68391811 307.73160014 -548.82862854 299.12025452 C-549.88034241 298.77736389 -550.93205627 298.43447327 -552.01564026 298.08119202 C-565.74021089 293.57721606 -579.07772538 288.62960067 -592.11817932 282.40931702 C-595.23033919 280.92920496 -598.35565172 279.47861076 -601.48097229 278.02650452 C-603.7641556 276.95493178 -606.04671529 275.8820292 -608.32862854 274.80775452 C-609.41023254 274.30397278 -610.49183655 273.80019104 -611.60621643 273.28114319 C-612.61804993 272.79879211 -613.62988342 272.31644104 -614.67237854 271.81947327 C-616.02106018 271.18271667 -616.02106018 271.18271667 -617.39698792 270.53309631 C-619.99133084 269.02572056 -621.80890711 267.32484276 -623.82862854 265.12025452 C-622.96237854 264.48087952 -622.09612854 263.84150452 -621.20362854 263.18275452 C-610.15362075 253.85279511 -607.50663318 239.80923971 -605.82862854 226.12025452 C-601.17843042 227.53738993 -596.94826253 229.46113448 -592.64112854 231.68275452 C-591.212136 232.40548442 -589.78241801 233.12678131 -588.35206604 233.84681702 C-587.23783264 234.4080426 -587.23783264 234.4080426 -586.10108948 234.98060608 C-544.11827588 256.03515849 -500.17136732 267.73777734 -453.82862854 274.12025452 C-451.907724 274.39409973 -451.907724 274.39409973 -449.94801331 274.67347717 C-442.67421283 275.68753134 -435.48046736 276.47934656 -428.14112854 276.74525452 C-427.20236877 276.7817511 -426.26360901 276.81824768 -425.29640198 276.85585022 C-422.47403472 276.95725975 -419.65174076 277.04258212 -416.82862854 277.12025452 C-416.03956116 277.14361877 -415.25049377 277.16698303 -414.43751526 277.1910553 C-389.29068632 277.83501326 -363.67776696 275.90608617 -338.82862854 272.12025452 C-337.88551819 271.97861877 -336.94240784 271.83698303 -335.97071838 271.6910553 C-316.59715374 268.71884374 -297.7755181 263.90740689 -278.95362854 258.49525452 C-277.50162048 258.07989441 -277.50162048 258.07989441 -276.02027893 257.65614319 C-269.78749732 255.82558525 -263.82742265 253.60243711 -257.82862854 251.12025452 C-255.80469321 250.31484514 -253.77990371 249.51157996 -251.75440979 248.71009827 C-223.41260127 237.38791789 -196.16987327 224.23467109 -170.82862854 207.12025452 C-170.19408752 206.69534729 -169.55954651 206.27044006 -168.90577698 205.83265686 C-155.5117648 196.84618659 -142.90510117 187.18882107 -130.68263245 176.67103577 C-129.32446833 175.53499962 -127.94294622 174.42673244 -126.54884338 173.33509827 C-118.40676975 166.90305805 -111.12890594 159.72534686 -103.82130432 152.37367249 C-101.70745234 150.24909771 -99.58311312 148.13543391 -97.45753479 146.02259827 C-90.119976 138.69260452 -83.21304161 131.30426658 -76.82862854 123.12025452 C-75.74483053 121.80253651 -74.65666319 120.48839301 -73.56300354 119.17884827 C-54.53760184 96.16767805 -38.22774309 71.25556012 -23.82862854 45.12025452 C-23.43514221 44.41835999 -23.04165588 43.71646545 -22.63624573 42.99330139 C-16.63943369 32.28730449 -11.62104394 21.18477389 -6.72511292 9.94398499 C-6.23333557 8.81621643 -5.74155823 7.68844788 -5.23487854 6.52650452 C-4.57455627 4.99993225 -4.57455627 4.99993225 -3.90089417 3.44252014 C-2.38375205 0.15676062 -2.38375205 0.15676062 0 0 Z " fill="#FBFBFB" transform="translate(1034.828628540039,793.8797454833984)"/>
<path d="M0 0 C0.02187378 1.70144165 0.02187378 1.70144165 0.04418945 3.43725586 C0.1025494 7.68121475 0.17977728 11.9246638 0.26245117 16.16821289 C0.29552431 17.99820628 0.32360999 19.82829737 0.34643555 21.65844727 C0.38030807 24.30266613 0.43263641 26.94600379 0.48828125 29.58984375 C0.49786613 30.79978249 0.49786613 30.79978249 0.50764465 32.03416443 C0.65468157 37.82919942 2.01218019 42.58406235 4 48 C4.90771484 50.81005859 4.90771484 50.81005859 5 53 C3.60400391 55.04541016 3.60400391 55.04541016 1.4765625 57.0390625 C0.70683105 57.77906494 -0.06290039 58.51906738 -0.85595703 59.28149414 C-1.68724121 60.05485107 -2.51852539 60.82820801 -3.375 61.625 C-5.05051051 63.23711545 -6.7224222 64.85298001 -8.390625 66.47265625 C-9.19435547 67.25141113 -9.99808594 68.03016602 -10.82617188 68.83251953 C-14.13671957 72.13340031 -17.03209508 75.6417236 -19.8828125 79.34765625 C-21.77962772 81.72392476 -23.75195243 83.96334306 -25.7890625 86.21875 C-29.86652685 90.77965419 -33.5999531 95.53070335 -37.25 100.4375 C-38.22042236 101.74001709 -38.22042236 101.74001709 -39.21044922 103.06884766 C-76.69242887 153.7732526 -103.30604334 212.4527201 -116.38671875 274.13232422 C-116.79299156 276.03203776 -117.20953835 277.92958539 -117.63671875 279.82470703 C-124.87079086 311.99988683 -126.90293587 345.1054203 -126 378 C-125.97776367 379.10456543 -125.95552734 380.20913086 -125.93261719 381.34716797 C-125.64494979 395.32909165 -124.41698128 409.06289978 -122.44140625 422.90527344 C-122.14245313 425.00125228 -121.85100791 427.09831333 -121.56640625 429.19628906 C-111.32423531 504.58501187 -79.89354158 574.53818099 -33.91943359 634.73779297 C-31.39455248 638.05781674 -29.06174086 641.36245047 -27 645 C-27.58007812 645.30292969 -28.16015625 645.60585938 -28.7578125 645.91796875 C-38.99568368 651.40857623 -46.51591865 658.17155422 -50.875 669.25 C-51.85539013 672.51796711 -52.5773089 675.61847118 -53 679 C-53.66 679 -54.32 679 -55 679 C-56.66788491 677.07884368 -58.21501879 675.14930074 -59.75 673.125 C-60.74711806 671.82791142 -61.74452775 670.53104699 -62.7421875 669.234375 C-63.27166992 668.54279297 -63.80115234 667.85121094 -64.34667969 667.13867188 C-66.00327076 664.99576907 -67.68808406 662.8784576 -69.3828125 660.765625 C-78.00975906 649.95856172 -85.68644348 638.73051691 -93 627 C-93.49661133 626.2049707 -93.99322266 625.40994141 -94.50488281 624.59082031 C-140.13851678 551.28025108 -169.57229973 466.20125733 -169.26428223 370.58978271 C-169.24511337 367.70110231 -169.24116345 364.81248423 -169.23743057 361.92374897 C-169.18385355 324.0485248 -169.18385355 324.0485248 -166.75 305.4375 C-166.61996582 304.43686523 -166.48993164 303.43623047 -166.35595703 302.40527344 C-160.42643486 258.67759448 -148.89840915 213.54766083 -130.15722656 173.49853516 C-129.01299139 171.02804934 -127.91751031 168.54145134 -126.8359375 166.04296875 C-118.08397009 145.91563819 -107.92348223 126.43159239 -96 108 C-95.40316406 107.0733252 -94.80632812 106.14665039 -94.19140625 105.19189453 C-85.40522243 91.61264414 -76.17914397 78.56795652 -66 66 C-65.19175781 64.99066406 -64.38351563 63.98132813 -63.55078125 62.94140625 C-61.39271063 60.27190777 -59.20282847 57.63264866 -57 55 C-56.58137695 54.49114258 -56.16275391 53.98228516 -55.73144531 53.45800781 C-47.64743182 43.64128759 -38.86476357 34.65351604 -29.78613281 25.75561523 C-28.32205861 24.31655597 -26.87190545 22.86334631 -25.42578125 21.40625 C-22.38615605 18.39109843 -19.26408356 15.47347229 -16.125 12.5625 C-15.24521484 11.74168945 -15.24521484 11.74168945 -14.34765625 10.90429688 C-11.32406691 8.09667821 -8.27390044 5.31951321 -5.1796875 2.58984375 C-4.61749512 2.09218506 -4.05530273 1.59452637 -3.47607422 1.08178711 C-2 0 -2 0 0 0 Z " fill="#FBFBFB" transform="translate(316,262)"/>
<path d="M0 0 C5.16814983 4.26934117 9.89044608 8.83333288 14.5703125 13.6328125 C16.95441487 16.03396898 16.95441487 16.03396898 19.59765625 18.0703125 C21.79648336 19.83652485 23.52138594 21.5840016 25.3125 23.75 C25.82425781 24.36359375 26.33601563 24.9771875 26.86328125 25.609375 C27.42595703 26.29773438 27.42595703 26.29773438 28 27 C26.4945581 30.56935418 24.40712438 32.77091235 21.625 35.4375 C19.22775619 37.77376463 17.00688832 39.99123304 14.9375 42.625 C13.18236907 44.77645082 11.47373377 46.37472881 9.36876965 48.16566944 C5.11934105 51.85034032 1.12748636 55.73806914 -2.83781433 59.72428894 C-3.58432843 60.47065418 -4.33084253 61.21701942 -5.09997827 61.98600179 C-7.58099745 64.46771105 -10.05843175 66.9529674 -12.53588867 69.43823242 C-14.32181381 71.22607823 -16.10796787 73.01369539 -17.89433289 74.80110168 C-21.73054957 78.64047202 -25.56526552 82.48133142 -29.3986721 86.32350731 C-34.94595988 91.88339136 -40.49652196 97.43999755 -46.04796437 102.99573294 C-55.06295322 112.01777621 -64.07607067 121.04168637 -73.08764648 130.06713867 C-73.62610281 130.60642281 -74.16455913 131.14570694 -74.71933232 131.70133302 C-78.54210407 135.53000623 -82.36480896 139.3587462 -86.1875 143.1875 C-90.55944118 147.56637255 -94.93141493 151.94521257 -99.3034668 156.32397461 C-100.11152338 157.13327339 -100.11152338 157.13327339 -100.93590435 157.95892163 C-109.91913296 166.95583735 -118.90432635 175.95078838 -127.89092237 184.94434053 C-133.42877539 190.48667129 -138.96484416 196.03077294 -144.49861584 201.57717881 C-148.73565598 205.82364255 -152.97523182 210.06756525 -157.21574593 214.31056023 C-158.95448759 216.05117609 -160.6923635 217.79265728 -162.42931366 219.53506088 C-164.79828767 221.91123901 -167.17032019 224.28432172 -169.5431366 226.65666199 C-170.23126802 227.34838837 -170.91939945 228.04011476 -171.62838334 228.75280255 C-174.94890164 232.06617914 -178.3186299 235.08473529 -182 238 C-183.12045583 239.19951608 -184.20811852 240.43069893 -185.25695801 241.6933136 C-189.23738065 246.3412977 -193.52818413 250.61753494 -197.88867188 254.90698242 C-199.6710265 256.66968693 -201.45337485 258.43239779 -203.23571777 260.19511414 C-204.17034348 261.11751074 -205.10496918 262.03990734 -206.06791687 262.99025536 C-209.00522438 265.889876 -211.93579559 268.79624158 -214.86486816 271.70417786 C-215.60924015 272.44309376 -215.60924015 272.44309376 -216.36864996 273.19693726 C-217.38223779 274.20312167 -218.39581022 275.20932159 -219.40936756 276.21553671 C-226.21803402 282.97434529 -233.03108467 289.72857983 -239.86230469 296.46459961 C-244.48730739 301.02524925 -249.10165135 305.59638698 -253.70388079 310.18002015 C-256.13555191 312.6010093 -258.57241061 315.01621576 -261.02244568 317.4186306 C-263.74436698 320.09255646 -266.44730487 322.78434863 -269.14648438 325.48120117 C-269.96194733 326.27352142 -270.77741028 327.06584167 -271.61758423 327.88217163 C-272.346539 328.61792923 -273.07549377 329.35368683 -273.82653809 330.11174011 C-274.46731041 330.74568286 -275.10808273 331.37962561 -275.7682724 332.03277874 C-277.26844544 333.98287274 -277.26844544 333.98287274 -276.74326324 336.59116077 C-276.49798637 337.38607772 -276.2527095 338.18099466 -276 339 C-275.7628125 339.80179688 -275.525625 340.60359375 -275.28125 341.4296875 C-274.76192633 343.05517059 -274.24110134 344.68017482 -273.71875 346.3046875 C-269.49344311 362.14958834 -272.01511496 376.46877321 -279.25 390.8125 C-287.82898781 405.0482579 -300.88470591 414.18300174 -316.625 418.8125 C-332.15413997 422.34184999 -348.33489667 420.31593459 -362 412 C-365.15590658 409.83031423 -368.09960644 407.49921763 -371 405 C-371.61746094 404.47792969 -372.23492188 403.95585938 -372.87109375 403.41796875 C-383.33343579 393.84108105 -389.14499999 379.29586548 -390.203125 365.31640625 C-390.52032717 346.68077901 -384.56525145 332.52971424 -372.1171875 318.9453125 C-361.36021216 308.43374344 -347.32044567 303.00344727 -332.5 302.8125 C-318.80577192 303.00479608 -318.80577192 303.00479608 -313.97363281 304.71875 C-311.93581046 305.23449161 -311.93581046 305.23449161 -310.29589844 303.84765625 C-309.46106934 302.96400391 -309.46106934 302.96400391 -308.609375 302.0625 C-307.98160156 301.41410156 -307.35382813 300.76570313 -306.70703125 300.09765625 C-306.06121094 299.40542969 -305.41539062 298.71320313 -304.75 298 C-303.47662081 296.66412367 -302.2005743 295.33078481 -300.921875 294 C-300.36081055 293.401875 -299.79974609 292.80375 -299.22167969 292.1875 C-297.28329628 290.27893788 -295.30007056 288.50874213 -293.24169922 286.73291016 C-289.04362312 283.08844914 -285.11596331 279.22743437 -281.2109375 275.2734375 C-280.15055771 274.20737778 -280.15055771 274.20737778 -279.0687561 273.11978149 C-276.83503078 270.87396147 -274.60460543 268.62490973 -272.375 266.375 C-269.42742091 263.4007057 -266.47646274 260.42982357 -263.5234375 257.4609375 C-262.85766693 256.78686859 -262.19189636 256.11279968 -261.50595093 255.41830444 C-258.70655412 252.60433184 -255.91403784 249.86302473 -252.84228516 247.34619141 C-250.03662198 245.03022996 -247.55742128 242.58709998 -245 240 C-243.91957929 238.91626295 -242.8385832 237.83309932 -241.75712585 236.75039673 C-240.51865305 235.50890429 -239.28019465 234.26739748 -238.04174805 233.02587891 C-231.10739115 226.07515094 -224.17046208 219.12699577 -217.23208904 212.18027687 C-213.04117237 207.98413981 -208.8511964 203.7870722 -204.66333008 199.58789062 C-200.60084701 195.51450525 -196.53589252 191.44360106 -192.46924782 187.37437057 C-190.92591655 185.82920056 -189.38346139 184.28315495 -187.84192467 182.73619461 C-185.67911153 180.5660716 -183.51313696 178.39915011 -181.34643555 176.23291016 C-180.71915054 175.60202988 -180.09186554 174.9711496 -179.4455719 174.32115173 C-175.6886239 170.57279446 -171.80343613 167.03385209 -167.78875446 163.56346703 C-165.68795403 161.72725514 -163.6950805 159.8089856 -161.73046875 157.828125 C-160.99610596 157.09045898 -160.26174316 156.35279297 -159.50512695 155.59277344 C-158.74031006 154.8196582 -157.97549316 154.04654297 -157.1875 153.25 C-156.37434326 152.43305664 -155.56118652 151.61611328 -154.72338867 150.77441406 C-152.14646703 148.18537329 -149.57282375 145.59311263 -147 143 C-143.60712847 139.58037281 -140.21085343 136.16417851 -136.8125 132.75 C-136.04768311 131.97688477 -135.28286621 131.20376953 -134.49487305 130.40722656 C-131.10162188 126.99871228 -127.68832543 123.67767034 -124.04101562 120.54101562 C-119.30161679 116.45892697 -114.93015772 112.03661479 -110.53125 107.59375 C-109.21163269 106.26845276 -109.21163269 106.26845276 -107.86535645 104.91638184 C-105.07445494 102.11334867 -102.28670768 99.30720084 -99.5 96.5 C-95.82601262 92.7989945 -92.14834398 89.10168178 -88.46875 85.40625 C-87.63831177 84.56751343 -86.80787354 83.72877686 -85.95227051 82.86462402 C-81.71867914 78.61342936 -77.40827746 74.54576296 -72.85949707 70.63464355 C-69.89923038 68.0323373 -67.13982586 65.24434077 -64.375 62.4375 C-63.78380371 61.84251709 -63.19260742 61.24753418 -62.58349609 60.63452148 C-60.719835 58.75880343 -58.85949158 56.87985097 -57 55 C-43.04038356 40.88754104 -43.04038356 40.88754104 -36.8828125 35.66015625 C-32.89570991 32.14455749 -29.22697728 28.28680035 -25.5 24.5 C-20.39104237 19.30903663 -15.26044 14.25057546 -9.73242188 9.50537109 C-7.55800508 7.61593283 -5.51835568 5.61689775 -3.5 3.5625 C-2.8296875 2.88316406 -2.159375 2.20382812 -1.46875 1.50390625 C-0.74171875 0.75947266 -0.74171875 0.75947266 0 0 Z " fill="#FCFBFC" transform="translate(956,266)"/>
<path d="M0 0 C-1.54423066 3.68761222 -3.78392327 6.01461976 -6.61328125 8.80859375 C-7.53173828 9.72060547 -8.45019531 10.63261719 -9.39648438 11.57226562 C-10.36836175 12.52747384 -11.340368 13.48255093 -12.3125 14.4375 C-13.27324846 15.38820522 -14.23353957 16.33937285 -15.19335938 17.29101562 C-16.97209262 19.05234686 -18.75287508 20.81161281 -20.53637695 22.56811523 C-21.75587036 23.77189819 -21.75587036 23.77189819 -23 25 C-24.34336426 26.30384644 -24.34336426 26.30384644 -25.71386719 27.6340332 C-28.10160991 29.90889327 -28.10160991 29.90889327 -29.58984375 32.796875 C-33.61964771 36.48052076 -38.33013245 35.47873738 -43.5625 35.25 C-54.33532251 34.92782213 -64.71853179 34.88165861 -75.125 38 C-75.8365625 38.21221191 -76.548125 38.42442383 -77.28125 38.64306641 C-89.22814516 42.44458941 -100.60065525 48.69904611 -110 57 C-110.81726563 57.68707031 -111.63453125 58.37414062 -112.4765625 59.08203125 C-123.90759461 68.94172813 -133.37681312 81.08078311 -138.1640625 95.50390625 C-138.87996328 97.64157261 -139.6876234 99.6410491 -140.625 101.6875 C-143.66231607 109.00467052 -144.57675129 116.15149681 -145 124 C-145.07492676 124.96413818 -145.07492676 124.96413818 -145.15136719 125.94775391 C-146.92977187 150.34134937 -137.88565488 174.94712003 -122.09765625 193.51171875 C-108.47444901 208.89055085 -92.92320485 217.7968107 -73.375 223.6875 C-72.67036621 223.90220947 -71.96573242 224.11691895 -71.23974609 224.33813477 C-47.61708362 231.24071756 -23.43870104 226.14021882 -2.07177734 214.99414062 C19.5860867 203.08023463 35.25615306 184.4795644 43 161 C43.58974609 159.41445313 43.58974609 159.41445313 44.19140625 157.796875 C48.8895192 143.45699018 48.97343992 125.8401328 45.42431641 111.2121582 C44.93828409 108.67824632 44.7171791 106.57221178 45 104 C46.33691406 102.39794922 46.33691406 102.39794922 48.265625 100.9296875 C51.96098002 97.9261941 55.34972534 94.72638813 58.671875 91.3203125 C59.16578735 90.81812195 59.65969971 90.3159314 60.1685791 89.79852295 C62.22183056 87.71044679 64.27083042 85.61840828 66.31103516 83.51757812 C67.8204406 81.96591502 69.33908656 80.42380379 70.859375 78.8828125 C71.75108398 77.96902832 72.64279297 77.05524414 73.56152344 76.11376953 C75.8601548 74.12122345 77.0319582 73.3444586 80 73 C94.9929095 103.10871169 95.86819062 140.12939917 86 172 C85.71382812 173.0003125 85.42765625 174.000625 85.1328125 175.03125 C74.94183925 208.58029469 49.13640928 237.87882395 18.65625 254.59375 C17.7796875 255.0578125 16.903125 255.521875 16 256 C15.2678125 256.4228125 14.535625 256.845625 13.78125 257.28125 C-15.70460662 273.47770645 -53.38497373 276.33856153 -85.5 267.375 C-123.1243735 256.26855452 -152.44339483 231.73065846 -172 198 C-172.45890625 197.2575 -172.9178125 196.515 -173.390625 195.75 C-183.00877357 179.67916948 -188.69349366 158.63120684 -189 140 C-189.01901367 139.32791504 -189.03802734 138.65583008 -189.05761719 137.96337891 C-190.14841358 97.79167229 -176.65080093 62.2949026 -149 33 C-148.37738281 32.32453125 -147.75476563 31.6490625 -147.11328125 30.953125 C-135.30517334 18.5756534 -119.90849332 8.26248524 -104 2 C-103.2265625 1.67644531 -102.453125 1.35289062 -101.65625 1.01953125 C-99.11852545 -0.02848474 -96.56540313 -1.02179732 -94 -2 C-93.13117188 -2.34160156 -92.26234375 -2.68320312 -91.3671875 -3.03515625 C-62.51008589 -13.60537592 -28.18090131 -11.57062554 0 0 Z " fill="#FAFAFA" transform="translate(674,497)"/>
<path d="M0 0 C0.99161133 0.01678802 1.98322266 0.03357605 3.00488281 0.0508728 C15.63592027 0.28015382 28.03766435 1.02828965 40.5625 2.6875 C41.64716553 2.82760498 42.73183105 2.96770996 43.84936523 3.11206055 C91.67238587 9.56227763 138.49047346 21.90821095 182.5625 41.6875 C183.45533691 42.08646484 184.34817383 42.48542969 185.26806641 42.89648438 C217.02592493 57.22125659 246.40684477 76.4134233 274.03857422 97.52441406 C275.87151342 98.92334427 277.71510002 100.30773761 279.5625 101.6875 C278.00447922 105.86494321 274.92427992 108.15744522 271.5625 110.875 C270.38051964 111.85297045 269.19954056 112.83215221 268.01953125 113.8125 C267.43381348 114.2971875 266.8480957 114.781875 266.24462891 115.28125 C259.33778228 121.05533368 252.84581272 127.2462269 246.5625 133.6875 C242.86639305 132.05945289 239.96786611 129.75266982 236.8125 127.25 C224.6833346 117.78202008 211.92685551 109.30563773 198.5625 101.6875 C197.76634277 101.23262207 196.97018555 100.77774414 196.14990234 100.30908203 C177.3332906 89.63266138 157.99103032 80.28480744 137.55859375 73.125 C134.95193648 72.2112879 132.48106692 71.21903438 129.9375 70.1171875 C126.68717646 68.74031434 123.52864071 67.73593673 120.125 66.8125 C115.23689798 65.46318017 110.43339008 63.98306905 105.625 62.375 C85.55697416 55.99494841 64.79305567 52.34450241 44 49.3125 C43.13263214 49.18521515 42.26526428 49.0579303 41.37161255 48.92678833 C22.82350303 46.2316059 4.60724547 45.48171985 -14.125 45.5 C-15.26266815 45.50060425 -16.4003363 45.5012085 -17.57247925 45.50183105 C-34.26455337 45.52593195 -50.84500451 45.67267718 -67.4375 47.6875 C-68.97543213 47.8728833 -68.97543213 47.8728833 -70.54443359 48.06201172 C-99.52347279 51.72602817 -127.55177217 59.24468408 -155.4375 67.6875 C-157.39957624 68.27658599 -159.36179723 68.86519026 -161.32421875 69.453125 C-162.69532174 69.86455254 -164.06641952 70.27599746 -165.4375 70.6875 C-165.65664063 69.86507812 -165.87578125 69.04265625 -166.1015625 68.1953125 C-169.7893882 55.21296675 -175.31208612 44.51884509 -187.375 37.75 C-188.72285037 37.05019789 -190.07484276 36.35801388 -191.4375 35.6875 C-191.4375 35.0275 -191.4375 34.3675 -191.4375 33.6875 C-129.18533022 9.03576011 -66.75063173 -1.23498113 0 0 Z " fill="#FBFBFB" transform="translate(647.4375,143.3125)"/>
<path d="M0 0 C0.86409485 -0.00511093 1.7281897 -0.01022186 2.61846924 -0.01548767 C5.47000086 -0.02936658 8.32129021 -0.02842769 11.17285156 -0.02612305 C13.16196787 -0.03001187 15.15108335 -0.03434693 17.14019775 -0.03910828 C21.30963837 -0.04656755 25.47899432 -0.04628202 29.6484375 -0.04101562 C34.97566931 -0.03523177 40.30255223 -0.05212725 45.62972641 -0.0753603 C49.73913581 -0.09013947 53.8484621 -0.09096347 57.95789337 -0.08785057 C59.92096902 -0.08836202 61.88404955 -0.0935665 63.8470993 -0.10366249 C66.60141697 -0.1160861 69.35506692 -0.10919914 72.109375 -0.09765625 C72.91072876 -0.10529999 73.71208252 -0.11294373 74.53771973 -0.12081909 C81.24380036 -0.05912272 87.18184135 1.45394006 93.00097656 4.8371582 C99.50354666 11.69121857 102.45933536 18.54577705 102.50634766 27.80419922 C102.51861389 29.12894508 102.51861389 29.12894508 102.53112793 30.48045349 C102.55600633 33.41315023 102.57250813 36.34579833 102.58691406 39.27856445 C102.59223774 40.28049269 102.59756142 41.28242092 102.60304642 42.31471062 C102.62979424 47.62239696 102.64916009 52.93005969 102.66357422 58.23779297 C102.68018602 63.70986324 102.72493019 69.18132702 102.77594566 74.65316868 C102.80968081 78.86808426 102.82115879 83.08285736 102.8268013 87.29789543 C102.83350116 89.31404162 102.84869012 91.33017886 102.87269211 93.34619331 C102.90446793 96.17774141 102.9043613 99.00767438 102.89697266 101.83935547 C102.91337799 102.66412384 102.92978333 103.48889221 102.94668579 104.33865356 C102.86755472 111.792638 99.95243131 117.31487163 95.03222656 122.83325195 C94.30003906 123.45329102 93.56785156 124.07333008 92.81347656 124.7121582 C92.08128906 125.35024414 91.34910156 125.98833008 90.59472656 126.64575195 C85.33610903 130.40062098 80.67451668 130.57200967 74.42749023 130.56518555 C73.54228195 130.57190277 72.65707367 130.57862 71.74504089 130.58554077 C68.82378497 130.60451079 65.90275897 130.60844458 62.98144531 130.6105957 C60.94509284 130.6170247 58.90874129 130.62375314 56.87239075 130.63076782 C52.60460265 130.64273837 48.33689549 130.64644891 44.0690918 130.64526367 C38.61164566 130.64506059 33.15472086 130.67235334 27.69739819 130.70680809 C23.49109026 130.72909272 19.28490743 130.73310072 15.07854652 130.73204422 C13.06718462 130.73439818 11.05581917 130.74321009 9.04451561 130.75870895 C6.22519262 130.77839883 3.40698915 130.77251893 0.58764648 130.76049805 C-0.23600403 130.77173706 -1.05965454 130.78297607 -1.90826416 130.79455566 C-8.7677591 130.72057946 -13.86549705 128.65049846 -19.11230469 124.23168945 C-19.73492187 123.52399414 -20.35753906 122.81629883 -20.99902344 122.0871582 C-21.63453125 121.39235352 -22.27003906 120.69754883 -22.92480469 119.98168945 C-27.06252069 113.62373559 -28.13377148 106.92789234 -28.05883789 99.46948242 C-28.06248856 98.64060516 -28.06613922 97.81172791 -28.06990051 96.95773315 C-28.07793365 94.248055 -28.06445903 91.53898852 -28.04980469 88.8293457 C-28.04928531 86.930837 -28.04980602 85.03232775 -28.05131531 83.13381958 C-28.05122591 79.16815084 -28.04086206 75.20268679 -28.02270508 71.23706055 C-27.99998817 66.1653838 -27.99948305 61.09400485 -28.00622272 56.02229118 C-28.00957047 52.10683567 -28.00291794 48.19144751 -27.99309349 44.27600479 C-27.98925744 42.40618365 -27.98808663 40.536355 -27.98967934 38.66653061 C-27.99005196 36.05122441 -27.97737598 33.43629435 -27.96118164 30.82104492 C-27.96365906 30.05618774 -27.96613647 29.29133057 -27.96868896 28.5032959 C-27.88670147 20.16854168 -25.85181085 13.43121336 -19.82324219 7.4152832 C-13.40790713 1.56778383 -8.73868582 -0.02674575 0 0 Z " fill="#F9F9F9" transform="translate(361.6865234375,191.725341796875)"/>
<path d="M0 0 C1.86507875 -0.00269978 3.73015613 -0.00658623 5.5952301 -0.01159668 C9.49111421 -0.01747032 13.3866297 -0.00899896 17.2824707 0.00976562 C22.24968336 0.03253795 27.21603046 0.01942938 32.18321133 -0.00452423 C36.03109631 -0.01905378 39.8787798 -0.01434333 43.72667122 -0.00401306 C45.55690682 -0.00136467 47.38716134 -0.00454825 49.2173748 -0.01393127 C73.26165126 -0.11016425 73.26165126 -0.11016425 82.33009338 8.75891113 C90.25985277 18.21467317 89.53740312 28.50073174 89.4453125 40.1875 C89.44614258 42.0998142 89.44860721 44.01212831 89.45262146 45.92443848 C89.45546922 49.91875869 89.4408786 53.91251501 89.41333008 57.90673828 C89.37924928 63.00410643 89.38527542 68.10046722 89.40399265 73.19788361 C89.4146056 77.14268255 89.40558594 81.08725067 89.39060783 85.0320282 C89.38545704 86.91053073 89.38586976 88.78905768 89.39215279 90.66755676 C89.41716488 102.63680553 89.42933915 113.83612062 80.58532715 123.00967407 C71.0502065 131.21151626 60.15983049 130.26596597 48.28515625 130.1953125 C46.28315945 130.19868626 44.28116465 130.20354353 42.2791748 130.20980835 C38.09656143 130.21715322 33.91448431 130.20655127 29.73193359 130.18310547 C24.39231421 130.15461936 19.05395172 130.17103615 13.71437836 130.20096779 C9.584276 130.21910537 5.45446768 130.21325317 1.32435608 130.20032883 C-0.64346977 130.19701265 -2.61132301 130.20101836 -4.57911682 130.21272659 C-25.46574729 130.30975229 -25.46574729 130.30975229 -33.95251465 123.00967407 C-43.31172256 113.30172772 -42.79379177 101.17941256 -42.75 88.6015625 C-42.75524493 86.7612985 -42.76152457 84.92103719 -42.76878357 83.08078003 C-42.77915175 79.2361785 -42.77467895 75.39194791 -42.76000977 71.54736328 C-42.74284072 66.64961502 -42.76631279 61.75304209 -42.80149937 56.85542488 C-42.82358848 53.05809939 -42.82200398 49.26105007 -42.81373405 45.46368027 C-42.81292057 43.65937894 -42.81966718 41.85505608 -42.83450508 40.05081558 C-42.91157713 28.98335966 -42.83326702 18.43161808 -35.44117737 9.40310669 C-25.23171714 -0.42199607 -13.27243624 -0.06795723 0 0 Z " fill="#FAFAFA" transform="translate(1042.18359375,645.46875)"/>
<path d="M0 0 C0.86628525 -0.00700928 1.7325705 -0.01401855 2.62510681 -0.02124023 C5.45996108 -0.03870115 8.29379949 -0.02724122 11.12866211 -0.01367188 C13.11445811 -0.01636997 15.10025281 -0.02025503 17.08604431 -0.02526855 C21.23587699 -0.03114727 25.38536394 -0.02265226 29.53515625 -0.00390625 C34.8400956 0.01889712 40.14422597 0.00574092 45.44913578 -0.01819611 C49.54566996 -0.03268536 53.64201393 -0.028034 57.738554 -0.01768494 C59.69407689 -0.01502707 61.64961736 -0.01825413 63.60511971 -0.02760315 C66.34267737 -0.03782209 69.07894414 -0.02219422 71.81640625 0 C73.01440353 -0.01214539 73.01440353 -0.01214539 74.23660278 -0.02453613 C82.05817428 0.09227301 88.48567566 3.38017976 94.18152714 8.6837225 C99.29365485 14.32453128 100.43812032 21.20070364 100.37695312 28.55053711 C100.3855687 29.4038562 100.39418427 30.25717529 100.40306091 31.13635254 C100.42557821 33.92910978 100.41900838 36.72085184 100.40991211 39.51367188 C100.41515408 41.47225743 100.42143265 43.43084045 100.42869568 45.38941956 C100.43907369 49.48377405 100.43457593 53.57778043 100.41992188 57.67211914 C100.4027398 62.89851923 100.42623615 68.12381928 100.46141148 73.3500967 C100.48345505 77.39182206 100.48192715 81.43328702 100.47364616 85.47505379 C100.47283042 87.40102406 100.47962107 89.32701417 100.49441719 91.25292778 C100.62814988 111.80872432 100.62814988 111.80872432 93.28639221 120.32347107 C86.79696528 126.57799297 78.6106871 127.97043856 69.90234375 127.9375 C69.05877823 127.94596954 68.21521271 127.95443909 67.34608459 127.96316528 C64.58595274 127.98636838 61.82638368 127.98756155 59.06616211 127.98632812 C57.12999758 127.99343905 55.19383514 128.0011394 53.25767517 128.00939941 C49.21046074 128.02280538 45.16344128 128.02443017 41.11621094 128.01855469 C35.95037883 128.01265797 30.78548633 128.04326745 25.61983585 128.08367157 C21.62445608 128.10961863 17.6293006 128.11241972 13.63384819 128.10877991 C11.73019484 128.11046415 9.82653035 128.12003906 7.92296028 128.13792419 C-12.96453198 128.31261963 -12.96453198 128.31261963 -21.59399414 120.23632812 C-22.10961914 119.50414062 -22.62524414 118.77195312 -23.15649414 118.01757812 C-23.69274414 117.28539062 -24.22899414 116.55320312 -24.78149414 115.79882812 C-27.94908776 110.54350234 -28.45784342 106.0023604 -28.46289062 99.9387207 C-28.47121414 99.08598572 -28.47953766 98.23325073 -28.4881134 97.35467529 C-28.51217251 94.5404399 -28.52098174 91.72643666 -28.52758789 88.91210938 C-28.5365593 86.94780917 -28.54568124 84.98350965 -28.5549469 83.01921082 C-28.57142974 78.90105532 -28.57913539 74.78298104 -28.58203125 70.66479492 C-28.58740569 65.40696966 -28.62505015 60.14991607 -28.67077541 54.89230824 C-28.7006331 50.83346323 -28.70775674 46.7748018 -28.7087574 42.71585655 C-28.71294457 40.77869836 -28.72531802 38.84153887 -28.74627495 36.90448952 C-28.9535588 16.08312974 -28.9535588 16.08312974 -21.6157074 7.77253723 C-20.15649414 6.51757812 -20.15649414 6.51757812 -18.15649414 6.51757812 C-18.15649414 5.85757813 -18.15649414 5.19757812 -18.15649414 4.51757812 C-11.95943613 1.29342946 -6.9623673 -0.07076435 0 0 Z " fill="#FCFBFC" transform="translate(309.156494140625,922.482421875)"/>
<path d="M0 0 C3.72296268 1.48100274 5.30374156 3.4237648 7.5625 6.6875 C8.26375 7.68652344 8.965 8.68554688 9.6875 9.71484375 C10.06261719 10.25222168 10.43773437 10.78959961 10.82421875 11.34326172 C12.0015648 13.00220489 13.21179564 14.63042795 14.4375 16.25390625 C43.65098146 55.0373213 65.57880589 98.43379014 82 144 C82.24556641 144.66805664 82.49113281 145.33611328 82.74414062 146.02441406 C90.75699405 167.89635688 95.88467632 191.12220948 100 214 C100.15307617 214.8451416 100.30615234 215.6902832 100.46386719 216.56103516 C101.3833671 221.69680378 102.22265461 226.84090803 103 232 C103.18304687 233.18980469 103.36609375 234.37960937 103.5546875 235.60546875 C106.61930943 257.60002463 107.2737529 279.82601511 107 302 C93.14 302 79.28 302 65 302 C64.71125 296.823125 64.4225 291.64625 64.125 286.3125 C63.3619665 273.17684399 62.52094257 260.073634 61 247 C60.86754883 245.81664062 60.86754883 245.81664062 60.73242188 244.609375 C52.16369398 170.30711909 20.64938255 98.17657159 -24.671875 39.0546875 C-29.03516689 33.32969713 -29.03516689 33.32969713 -28.78601074 30.99380493 C-27.43713535 27.5722303 -24.62871345 25.28783783 -22.03125 22.7734375 C-21.43574341 22.18454742 -20.84023682 21.59565735 -20.22668457 20.98892212 C-18.32475467 19.11038477 -16.412954 17.2423045 -14.5 15.375 C-12.58881285 13.49885848 -10.67977232 11.6206025 -8.77331543 9.73965454 C-7.58676088 8.57009607 -6.39714319 7.40363569 -5.20422363 6.24057007 C-2.22963965 3.40658827 -2.22963965 3.40658827 0 0 Z " fill="#FBFBFB" transform="translate(1001,324)"/>
<path d="M0 0 C0.99261337 0.00222061 1.98522675 0.00444122 3.00791931 0.00672913 C4.12900589 0.00680466 5.25009247 0.00688019 6.40515137 0.00695801 C8.2348069 0.01469994 8.2348069 0.01469994 10.10142517 0.02259827 C11.96377052 0.02472069 11.96377052 0.02472069 13.86373901 0.02688599 C17.16982383 0.03154861 20.47584039 0.04053955 23.78190613 0.05158997 C27.15338031 0.06180625 30.52486174 0.06643878 33.89634705 0.07142639 C40.51552631 0.08163173 47.13458545 0.10120346 53.75376892 0.12025452 C53.75376892 18.27025452 53.75376892 36.42025452 53.75376892 55.12025452 C34.94376892 55.12025452 16.13376892 55.12025452 -3.24623108 55.12025452 C-3.26685608 46.23087952 -3.28748108 37.34150452 -3.30873108 28.18275452 C-3.31783508 25.37267883 -3.32693909 22.56260315 -3.33631897 19.66737366 C-3.33923791 17.45505318 -3.34178652 15.24273217 -3.34388733 13.03041077 C-3.3490033 11.8695697 -3.35411926 10.70872864 -3.35939026 9.51271057 C-3.35951111 8.41648376 -3.35963196 7.32025696 -3.35975647 6.19081116 C-3.36197708 5.23372757 -3.36419769 4.27664398 -3.3664856 3.29055786 C-3.20115979 0.30682678 -2.98611891 0.15986525 0 0 Z " fill="#060606" transform="translate(1040.2462310791016,682.8797454833984)"/>
<path d="M0 0 C18.15 0 36.3 0 55 0 C55 18.15 55 36.3 55 55 C36.85 55 18.7 55 0 55 C0 36.85 0 18.7 0 0 Z " fill="#010101" transform="translate(372,229)"/>
<path d="M0 0 C18.48 0 36.96 0 56 0 C56 17.82 56 35.64 56 54 C37.52 54 19.04 54 0 54 C0 36.18 0 18.36 0 0 Z " fill="#060606" transform="translate(317,959)"/>
<path d="M0 0 C0.495 1.485 0.495 1.485 1 3 C0.34 3 -0.32 3 -1 3 C-1.33 3.99 -1.66 4.98 -2 6 C-2.66 6 -3.32 6 -4 6 C-4 6.66 -4 7.32 -4 8 C-5.50390625 9.4453125 -5.50390625 9.4453125 -7.5625 11.125 C-11.31756613 14.29312862 -14.45265657 17.69430236 -17.5546875 21.49609375 C-18.27011719 22.24052734 -18.27011719 22.24052734 -19 23 C-19.66 23 -20.32 23 -21 23 C-21 23.66 -21 24.32 -21 25 C-22.35546875 26.33203125 -22.35546875 26.33203125 -24.1875 27.8125 C-27.33129178 30.3672589 -30.15471208 33.11475017 -33 36 C-34.3285722 37.33028142 -35.65807768 38.65963111 -36.98828125 39.98828125 C-37.69404297 40.69404297 -38.39980469 41.39980469 -39.12695312 42.12695312 C-42.41796875 45.41796875 -45.70898438 48.70898438 -49 52 C-49.66 51.67 -50.32 51.34 -51 51 C-34.17 34.17 -17.34 17.34 0 0 Z " fill="#141414" transform="translate(743,535)"/>
<path d="M0 0 C0 3 0 3 -1.34521484 4.65405273 C-1.96090332 5.24130127 -2.5765918 5.8285498 -3.2109375 6.43359375 C-3.87867188 7.08263672 -4.54640625 7.73167969 -5.234375 8.40039062 C-5.94078125 9.07263672 -6.6471875 9.74488281 -7.375 10.4375 C-8.76240359 11.76474864 -10.14539541 13.09662791 -11.5234375 14.43359375 C-12.14138184 15.02197021 -12.75932617 15.61034668 -13.39599609 16.21655273 C-15.04870568 18.05415449 -15.94905755 19.77865094 -17 22 C-18.963354 24.09424427 -21.03499799 26.03293929 -23.125 28 C-24.94759719 29.94410367 -25.88438421 31.60939474 -27 34 C-27.66 34.66 -28.32 35.32 -29 36 C-30 32.9375 -30 32.9375 -30 29 C-28.65429688 27.48632812 -28.65429688 27.48632812 -26.71875 25.96875 C-23.10072971 22.97885823 -19.71549192 19.82880056 -16.40625 16.50390625 C-15.92502686 16.02159042 -15.44380371 15.5392746 -14.94799805 15.04234314 C-13.46326693 13.55109924 -11.98157419 12.05687971 -10.5 10.5625 C-9.47679861 9.5342702 -8.45336267 8.50627374 -7.4296875 7.47851562 C-4.95042001 4.98835662 -2.47432462 2.49507167 0 0 Z " fill="#DDDCDD" transform="translate(749,572)"/>
<path d="M0 0 C0.33 1.32 0.66 2.64 1 4 C0.01 4.33 -0.98 4.66 -2 5 C-2 5.66 -2 6.32 -2 7 C-4.375 9.625 -4.375 9.625 -7 12 C-7.66 12 -8.32 12 -9 12 C-9.25007812 12.59683594 -9.50015625 13.19367187 -9.7578125 13.80859375 C-11.17315011 16.30546294 -12.54428664 17.41341036 -14.875 19.0625 C-15.89207031 19.79146484 -15.89207031 19.79146484 -16.9296875 20.53515625 C-17.61289062 21.01855469 -18.29609375 21.50195312 -19 22 C-20.02480469 22.86431641 -20.02480469 22.86431641 -21.0703125 23.74609375 C-21.70710937 24.15988281 -22.34390625 24.57367187 -23 25 C-23.99 24.67 -24.98 24.34 -26 24 C-25.39414062 23.52691406 -24.78828125 23.05382812 -24.1640625 22.56640625 C-15.42263274 15.66740091 -7.02121427 8.68413344 0 0 Z " fill="#141414" transform="translate(732,718)"/>
<path d="M0 0 C0.66 0.66 1.32 1.32 2 2 C0.37660195 3.70884005 -1.29319053 5.37446717 -3 7 C-3.66 7 -4.32 7 -5 7 C-5.21914063 7.55816406 -5.43828125 8.11632812 -5.6640625 8.69140625 C-7.43275142 11.74782481 -9.71485986 13.6232494 -12.375 15.9375 C-15.98250222 19.08312525 -19.11324919 22.17608128 -22 26 C-22.99 25.67 -23.98 25.34 -25 25 C-16.75 16.75 -8.5 8.5 0 0 Z " fill="#EAE9EB" transform="translate(1000,326)"/>
<path d="M0 0 C1.94888306 -0.36076355 1.94888306 -0.36076355 4.35791016 -0.34057617 C5.25869293 -0.34034958 6.15947571 -0.34012299 7.08755493 -0.33988953 C8.06155243 -0.32440567 9.03554993 -0.30892181 10.0390625 -0.29296875 C11.03505463 -0.28872391 12.03104675 -0.28447906 13.05722046 -0.28010559 C16.24675225 -0.2632768 19.43565833 -0.22561676 22.625 -0.1875 C24.78384506 -0.1724586 26.9427 -0.15876925 29.1015625 -0.14648438 C34.40125612 -0.11335967 39.70058337 -0.06311896 45 0 C44.67 1.98 44.34 3.96 44 6 C43.34 5.67 42.68 5.34 42 5 C42 3.68 42 2.36 42 1 C28.47 1.33 14.94 1.66 1 2 C0.67 2.66 0.34 3.32 0 4 C-0.66 3.67 -1.32 3.34 -2 3 C-1.34 2.01 -0.68 1.02 0 0 Z " fill="#EBEBEB" transform="translate(1033,794)"/>
<path d="M0 0 C0.66 0.99 1.32 1.98 2 3 C-1.96 6.96 -5.92 10.92 -10 15 C-10.99 14.34 -11.98 13.68 -13 13 C-8.71 8.71 -4.42 4.42 0 0 Z " fill="#E5E5E5" transform="translate(744,530)"/>
<path d="M0 0 C0.66 0.66 1.32 1.32 2 2 C1.01 2.33 0.02 2.66 -1 3 C-1.433125 3.86625 -1.433125 3.86625 -1.875 4.75 C-3.3877384 7.77547679 -5.56075295 9.67974061 -8 12 C-8.556875 12.598125 -9.11375 13.19625 -9.6875 13.8125 C-11 15 -11 15 -13 15 C-13 15.66 -13 16.32 -13 17 C-14.65 17.66 -16.3 18.32 -18 19 C-12.44964797 12.21623641 -6.23557973 6.14477032 0 0 Z " fill="#070708" transform="translate(772,506)"/>
<path d="M0 0 C-2.74615804 1.48638267 -5.49754691 2.96281172 -8.25 4.4375 C-9.02730469 4.85837891 -9.80460937 5.27925781 -10.60546875 5.71289062 C-11.73662109 6.31713867 -11.73662109 6.31713867 -12.890625 6.93359375 C-13.58188477 7.30540771 -14.27314453 7.67722168 -14.98535156 8.06030273 C-17.00753083 9.00351262 -18.79873153 9.63666988 -21 10 C-21.66 9.67 -22.32 9.34 -23 9 C-19.92725154 7.29266954 -16.84034212 5.61274352 -13.75 3.9375 C-12.87730469 3.45216797 -12.00460937 2.96683594 -11.10546875 2.46679688 C-10.26113281 2.01240234 -9.41679687 1.55800781 -8.546875 1.08984375 C-7.77182617 0.66566162 -6.99677734 0.24147949 -6.19824219 -0.19555664 C-3.66134523 -1.12393019 -2.49749524 -0.91790413 0 0 Z " fill="#CECECF" transform="translate(502,340)"/>
<path d="M0 0 C0.66 0.33 1.32 0.66 2 1 C-0.89430568 4.69827948 -2.78070646 6.95840635 -7 9 C-8.35386936 10.65002828 -9.68678142 12.3174387 -11 14 C-13.25 15.8125 -13.25 15.8125 -15 17 C-15.66 16.67 -16.32 16.34 -17 16 C-5.47835991 4.29384966 -5.47835991 4.29384966 0 0 Z " fill="#E6E5E6" transform="translate(539,517)"/>
<path d="M0 0 C0.33 0 0.66 0 1 0 C2.20568053 4.67201205 2.09382426 9.21496292 2 14 C1.01 14 0.02 14 -1 14 C-1.08333357 9.1666528 -0.95261487 4.76307437 0 0 Z M2 1 C3 5 3 5 3 5 Z " fill="#D8D7D9" transform="translate(149,573)"/>
<path d="M0 0 C6.6 0 13.2 0 20 0 C20 0.33 20 0.66 20 1 C14.39 1 8.78 1 3 1 C2.34 3.64 1.68 6.28 1 9 C0.67 9 0.34 9 0 9 C0 6.03 0 3.06 0 0 Z " fill="#0D0D0D" transform="translate(319,961)"/>
<path d="M0 0 C2.0625 0.4375 2.0625 0.4375 4 1 C1.33333333 3 -1.33333333 5 -4 7 C-4.68578125 7.58136719 -5.3715625 8.16273438 -6.078125 8.76171875 C-6.71234375 9.17035156 -7.3465625 9.57898438 -8 10 C-8.99 9.67 -9.98 9.34 -11 9 C-9.93458984 8.15115234 -9.93458984 8.15115234 -8.84765625 7.28515625 C-7.92855469 6.55167969 -7.00945313 5.81820312 -6.0625 5.0625 C-5.14597656 4.33160156 -4.22945312 3.60070312 -3.28515625 2.84765625 C-1.59148731 1.48061289 -1.59148731 1.48061289 0 0 Z " fill="#1F1F1F" transform="translate(717,733)"/>
<path d="M0 0 C0.66 0.33 1.32 0.66 2 1 C1.31164062 1.67095703 1.31164062 1.67095703 0.609375 2.35546875 C-2.83552299 5.74970648 -6.07255085 9.13576712 -9 13 C-9.99 12.67 -10.98 12.34 -12 12 C-8.04 8.04 -4.08 4.08 0 0 Z " fill="#E2E1E2" transform="translate(987,339)"/>
<path d="M0 0 C-1.13471468 3.40414403 -2.17225987 4.24276648 -4.875 6.5 C-7.35415347 8.58578225 -9.7439576 10.67301287 -12 13 C-12.66 12.67 -13.32 12.34 -14 12 C-12.04761147 9.99387601 -10.08862178 7.99507567 -8.125 6 C-7.29162109 5.14148438 -7.29162109 5.14148438 -6.44140625 4.265625 C-2.2265625 0 -2.2265625 0 0 0 Z " fill="#181819" transform="translate(321,316)"/>
<path d="M0 0 C0.33 0.99 0.66 1.98 1 3 C0.319375 3.350625 -0.36125 3.70125 -1.0625 4.0625 C-4.883658 6.58283826 -7.85719915 9.69417202 -11 13 C-11.66 12.67 -12.32 12.34 -13 12 C-11.3989569 10.3719224 -9.79405264 8.74764115 -8.1875 7.125 C-7.29417969 6.22007812 -6.40085937 5.31515625 -5.48046875 4.3828125 C-3 2 -3 2 0 0 Z " fill="#303032" transform="translate(970,309)"/>
<path d="M0 0 C0.99 0.66 1.98 1.32 3 2 C2.46884894 6.51478398 0.63379708 9.34666857 -2 13 C-3.45047396 10.09905209 -2.45356803 8.44027404 -1.5625 5.375 C-1.27503906 4.37210938 -0.98757813 3.36921875 -0.69140625 2.3359375 C-0.46324219 1.56507813 -0.23507812 0.79421875 0 0 Z " fill="#D0D0D1" transform="translate(720,647)"/>
<path d="M0 0 C0.33 0.99 0.66 1.98 1 3 C-1.66666667 5.66666667 -4.33333333 8.33333333 -7 11 C-7.66 10.67 -8.32 10.34 -9 10 C-6.03 6.7 -3.06 3.4 0 0 Z " fill="#212121" transform="translate(298,338)"/>
<path d="M0 0 C-1.65 0.33 -3.3 0.66 -5 1 C-5.33 1.99 -5.66 2.98 -6 4 C-7.65 3.67 -9.3 3.34 -11 3 C-11.33 3.66 -11.66 4.32 -12 5 C-12.66 4.34 -13.32 3.68 -14 3 C-12.23358317 2.3012307 -10.46167336 1.61633417 -8.6875 0.9375 C-7.20830078 0.36322266 -7.20830078 0.36322266 -5.69921875 -0.22265625 C-3 -1 -3 -1 0 0 Z " fill="#474847" transform="translate(602,535)"/>
<path d="M0 0 C0.66 0.99 1.32 1.98 2 3 C-0.97 5.475 -0.97 5.475 -4 8 C-4.66 7.34 -5.32 6.68 -6 6 C-4.02 4.02 -2.04 2.04 0 0 Z " fill="#212020" transform="translate(705,508)"/>
<path d="M0 0 C0.33 0.99 0.66 1.98 1 3 C-1.31 4.98 -3.62 6.96 -6 9 C-6.33 8.01 -6.66 7.02 -7 6 C-6.34 6 -5.68 6 -5 6 C-5 5.34 -5 4.68 -5 4 C-3.37373596 2.61767557 -1.7074998 1.28062485 0 0 Z " fill="#0B0B0C" transform="translate(937,281)"/>
<path d="M0 0 C0.66 0.99 1.32 1.98 2 3 C0.63016497 6.16115776 0.0109362 6.9927092 -3 9 C-3 5 -3 5 -2 3 C-1.34 3 -0.68 3 0 3 C0 2.01 0 1.02 0 0 Z " fill="#DADADA" transform="translate(319,310)"/>
<path d="M0 0 C0.66 0.99 1.32 1.98 2 3 C0.97159885 7.01076447 -0.95987596 9.26388836 -4 12 C-3.52309796 10.37433394 -3.04340334 8.74948689 -2.5625 7.125 C-2.29566406 6.22007812 -2.02882813 5.31515625 -1.75390625 4.3828125 C-1 2 -1 2 0 0 Z " fill="#373838" transform="translate(918,746)"/>
<path d="M0 0 C0.99 0.33 1.98 0.66 3 1 C0.69 3.31 -1.62 5.62 -4 8 C-4.66 7.34 -5.32 6.68 -6 6 C-4.02 4.02 -2.04 2.04 0 0 Z " fill="#090909" transform="translate(698,515)"/>
<path d="M0 0 C0.99 0.33 1.98 0.66 3 1 C-0.465 3.97 -0.465 3.97 -4 7 C-4.33 6.01 -4.66 5.02 -5 4 C-4.34 4 -3.68 4 -3 4 C-3 3.34 -3 2.68 -3 2 C-2.01 1.34 -1.02 0.68 0 0 Z " fill="#F1F0F1" transform="translate(658,511)"/>
<path d="M0 0 C4.875 4.625 4.875 4.625 6 8 C5.01 8 4.02 8 3 8 C0.89229241 5.11165997 0 3.61537605 0 0 Z " fill="#DDDCDD" transform="translate(275,889)"/>
<path d="M0 0 C0.66 0.66 1.32 1.32 2 2 C-1.465 4.97 -1.465 4.97 -5 8 C-5.66 7.67 -6.32 7.34 -7 7 C-4.69 4.69 -2.38 2.38 0 0 Z " fill="#0A0A0A" transform="translate(753,525)"/>
<path d="M0 0 C0.66 0.33 1.32 0.66 2 1 C-2.30769231 6.78461538 -2.30769231 6.78461538 -5.8125 7.875 C-6.8953125 7.936875 -6.8953125 7.936875 -8 8 C-5.33333333 5.33333333 -2.66666667 2.66666667 0 0 Z " fill="#D8D7D8" transform="translate(539,517)"/>
<path d="M0 0 C0 0.66 0 1.32 0 2 C-2.97 2 -5.94 2 -9 2 C-9 1.34 -9 0.68 -9 0 C-2.25 -1.125 -2.25 -1.125 0 0 Z " fill="#080808" transform="translate(604,1116)"/>
<path d="M0 0 C0.33 0 0.66 0 1 0 C1.25 3.25 1.25 3.25 1 7 C-0.32 8.32 -1.64 9.64 -3 11 C-2.01 7.37 -1.02 3.74 0 0 Z " fill="#C5C4C6" transform="translate(887,703)"/>
<path d="M0 0 C2.875 0.3125 2.875 0.3125 6 1 C6.66 1.99 7.32 2.98 8 4 C2.25 4.125 2.25 4.125 0 3 C0 2.01 0 1.02 0 0 Z " fill="#0A0A0A" transform="translate(681,361)"/>
<path d="M0 0 C-0.25 1.875 -0.25 1.875 -1 4 C-3.0625 5.25 -3.0625 5.25 -5 6 C-5 3 -5 3 -3.625 1.3125 C-2 0 -2 0 0 0 Z " fill="#191919" transform="translate(937,1001)"/>
<path d="M0 0 C0.33 0.99 0.66 1.98 1 3 C-0.40445835 5.2636564 -2.1967913 7.0208685 -4 9 C-4.66 8.67 -5.32 8.34 -6 8 C-4.02 5.36 -2.04 2.72 0 0 Z " fill="#202021" transform="translate(1008,923)"/>
<path d="M0 0 C0.99 0.33 1.98 0.66 3 1 C1.35 2.65 -0.3 4.3 -2 6 C-2.33 5.01 -2.66 4.02 -3 3 C-2.34 3 -1.68 3 -1 3 C-0.67 2.01 -0.34 1.02 0 0 Z " fill="#212021" transform="translate(286,284)"/>
</svg>
